<svg width="110" height="34" viewBox="0 0 110 34" fill="none" xmlns="http://www.w3.org/2000/svg">
<rect width="110" height="34" rx="4" fill="#FFC800"/>
<circle cx="14" cy="16.5" r="2" fill="#2C2825"/>
<path d="M26.21 23L30.13 13.116H32.118L35.996 23H33.672L30.704 14.796H31.502L28.492 23H26.21ZM28.436 21.208V19.416H33.826V21.208H28.436ZM39.0018 23V21.292H41.3258C41.7552 21.292 42.0912 21.166 42.3338 20.914C42.5765 20.662 42.6978 20.354 42.6978 19.99C42.6978 19.738 42.6418 19.514 42.5298 19.318C42.4178 19.122 42.2592 18.968 42.0538 18.856C41.8578 18.744 41.6152 18.688 41.3258 18.688H39.0018V17.022H41.1438C41.5078 17.022 41.8018 16.9333 42.0258 16.756C42.2498 16.5693 42.3618 16.2893 42.3618 15.916C42.3618 15.552 42.2498 15.2813 42.0258 15.104C41.8018 14.9173 41.5078 14.824 41.1438 14.824H39.0018V13.116H41.5638C42.1985 13.116 42.7352 13.2327 43.1738 13.466C43.6218 13.6993 43.9625 14.012 44.1958 14.404C44.4292 14.796 44.5458 15.23 44.5458 15.706C44.5458 16.3127 44.3498 16.826 43.9578 17.246C43.5658 17.666 42.9872 17.9553 42.2218 18.114L42.2778 17.372C43.1085 17.5307 43.7478 17.8527 44.1958 18.338C44.6532 18.8233 44.8818 19.4207 44.8818 20.13C44.8818 20.6713 44.7465 21.1613 44.4758 21.6C44.2145 22.0293 43.8318 22.37 43.3278 22.622C42.8332 22.874 42.2358 23 41.5358 23H39.0018ZM37.3218 23V13.116H39.4918V23H37.3218ZM51.2886 23.168C50.5419 23.168 49.8513 23.0373 49.2166 22.776C48.5913 22.5147 48.0406 22.1507 47.5646 21.684C47.0886 21.2173 46.7199 20.676 46.4586 20.06C46.1973 19.4347 46.0666 18.7627 46.0666 18.044C46.0666 17.316 46.1973 16.644 46.4586 16.028C46.7199 15.412 47.0839 14.8753 47.5506 14.418C48.0173 13.9513 48.5633 13.592 49.1886 13.34C49.8233 13.0787 50.5139 12.948 51.2606 12.948C51.9979 12.948 52.6793 13.0787 53.3046 13.34C53.9393 13.592 54.4899 13.9513 54.9566 14.418C55.4326 14.8753 55.8013 15.4167 56.0626 16.042C56.3239 16.658 56.4546 17.33 56.4546 18.058C56.4546 18.7767 56.3239 19.4487 56.0626 20.074C55.8013 20.69 55.4373 21.2313 54.9706 21.698C54.5039 22.1553 53.9533 22.5147 53.3186 22.776C52.6933 23.0373 52.0166 23.168 51.2886 23.168ZM51.2606 21.166C51.8486 21.166 52.3619 21.0353 52.8006 20.774C53.2486 20.5127 53.5939 20.1487 53.8366 19.682C54.0793 19.206 54.2006 18.66 54.2006 18.044C54.2006 17.5773 54.1306 17.1573 53.9906 16.784C53.8506 16.4013 53.6499 16.0747 53.3886 15.804C53.1273 15.524 52.8146 15.314 52.4506 15.174C52.0959 15.0247 51.6993 14.95 51.2606 14.95C50.6726 14.95 50.1546 15.0807 49.7066 15.342C49.2679 15.594 48.9273 15.9533 48.6846 16.42C48.4419 16.8773 48.3206 17.4187 48.3206 18.044C48.3206 18.5107 48.3906 18.9353 48.5306 19.318C48.6706 19.7007 48.8666 20.032 49.1186 20.312C49.3799 20.5827 49.6926 20.7927 50.0566 20.942C50.4206 21.0913 50.8219 21.166 51.2606 21.166ZM62.1059 23.154C61.2939 23.154 60.5752 22.9813 59.9499 22.636C59.3339 22.2907 58.8486 21.8147 58.4939 21.208C58.1486 20.592 57.9759 19.892 57.9759 19.108V13.116H60.1879V19.234C60.1879 19.626 60.2719 19.9667 60.4399 20.256C60.6079 20.5453 60.8366 20.7693 61.1259 20.928C61.4246 21.0773 61.7512 21.152 62.1059 21.152C62.4792 21.152 62.8059 21.0773 63.0859 20.928C63.3659 20.7693 63.5852 20.55 63.7439 20.27C63.9119 19.9807 63.9959 19.64 63.9959 19.248V13.116H66.2079V19.122C66.2079 19.906 66.0352 20.6013 65.6899 21.208C65.3446 21.8147 64.8639 22.2907 64.2479 22.636C63.6319 22.9813 62.9179 23.154 62.1059 23.154ZM70.6073 23V13.256H72.8053V23H70.6073ZM67.5133 15.034V13.116H75.8993V15.034H67.5133ZM84.11 23.154C83.298 23.154 82.5793 22.9813 81.954 22.636C81.338 22.2907 80.8526 21.8147 80.498 21.208C80.1526 20.592 79.98 19.892 79.98 19.108V13.116H82.192V19.234C82.192 19.626 82.276 19.9667 82.444 20.256C82.612 20.5453 82.8406 20.7693 83.13 20.928C83.4286 21.0773 83.7553 21.152 84.11 21.152C84.4833 21.152 84.81 21.0773 85.09 20.928C85.37 20.7693 85.5893 20.55 85.748 20.27C85.916 19.9807 86 19.64 86 19.248V13.116H88.212V19.122C88.212 19.906 88.0393 20.6013 87.694 21.208C87.3486 21.8147 86.868 22.2907 86.252 22.636C85.636 22.9813 84.922 23.154 84.11 23.154ZM93.1027 23.154C92.2907 23.154 91.5907 23.0233 91.0027 22.762C90.424 22.4913 89.892 22.0853 89.4067 21.544L90.8347 20.13C91.152 20.494 91.502 20.7787 91.8847 20.984C92.2767 21.18 92.7293 21.278 93.2427 21.278C93.7093 21.278 94.0687 21.194 94.3207 21.026C94.582 20.858 94.7127 20.6247 94.7127 20.326C94.7127 20.0553 94.6287 19.836 94.4607 19.668C94.2927 19.5 94.0687 19.3553 93.7887 19.234C93.518 19.1127 93.2147 18.996 92.8787 18.884C92.552 18.772 92.2253 18.646 91.8987 18.506C91.572 18.3567 91.2687 18.1747 90.9887 17.96C90.718 17.736 90.4987 17.4607 90.3307 17.134C90.1627 16.798 90.0787 16.378 90.0787 15.874C90.0787 15.2673 90.2233 14.7447 90.5127 14.306C90.8113 13.8673 91.222 13.536 91.7447 13.312C92.2673 13.0787 92.8693 12.962 93.5507 12.962C94.2413 12.962 94.8713 13.0833 95.4407 13.326C96.0193 13.5687 96.4953 13.9 96.8687 14.32L95.4407 15.734C95.142 15.426 94.8387 15.1973 94.5307 15.048C94.232 14.8987 93.8913 14.824 93.5087 14.824C93.126 14.824 92.8227 14.8987 92.5987 15.048C92.3747 15.188 92.2627 15.3933 92.2627 15.664C92.2627 15.916 92.3467 16.1213 92.5147 16.28C92.6827 16.4293 92.902 16.56 93.1727 16.672C93.4527 16.784 93.756 16.896 94.0827 17.008C94.4187 17.12 94.75 17.2507 95.0767 17.4C95.4033 17.5493 95.702 17.7407 95.9727 17.974C96.2527 18.198 96.4767 18.4873 96.6447 18.842C96.8127 19.1873 96.8967 19.6167 96.8967 20.13C96.8967 21.0727 96.5607 21.8147 95.8887 22.356C95.2167 22.888 94.288 23.154 93.1027 23.154Z" fill="#2C2825"/>
</svg>
