<svg width="100" height="31" viewBox="0 0 100 31" fill="none" xmlns="http://www.w3.org/2000/svg">
<rect width="100" height="31" rx="4" fill="#FFC800"/>
<circle cx="14" cy="15" r="2" fill="#2C2825"/>
<path d="M26.18 21L29.54 12.528H31.244L34.568 21H32.576L30.032 13.968H30.716L28.136 21H26.18ZM28.088 19.464V17.928H32.708V19.464H28.088ZM37.1444 21V19.536H39.1364C39.5044 19.536 39.7924 19.428 40.0004 19.212C40.2084 18.996 40.3124 18.732 40.3124 18.42C40.3124 18.204 40.2644 18.012 40.1684 17.844C40.0724 17.676 39.9364 17.544 39.7604 17.448C39.5924 17.352 39.3844 17.304 39.1364 17.304H37.1444V15.876H38.9804C39.2924 15.876 39.5444 15.8 39.7364 15.648C39.9284 15.488 40.0244 15.248 40.0244 14.928C40.0244 14.616 39.9284 14.384 39.7364 14.232C39.5444 14.072 39.2924 13.992 38.9804 13.992H37.1444V12.528H39.3404C39.8844 12.528 40.3444 12.628 40.7204 12.828C41.1044 13.028 41.3964 13.296 41.5964 13.632C41.7964 13.968 41.8964 14.34 41.8964 14.748C41.8964 15.268 41.7284 15.708 41.3924 16.068C41.0564 16.428 40.5604 16.676 39.9044 16.812L39.9524 16.176C40.6644 16.312 41.2124 16.588 41.5964 17.004C41.9884 17.42 42.1844 17.932 42.1844 18.54C42.1844 19.004 42.0684 19.424 41.8364 19.8C41.6124 20.168 41.2844 20.46 40.8524 20.676C40.4284 20.892 39.9164 21 39.3164 21H37.1444ZM35.7044 21V12.528H37.5644V21H35.7044ZM47.6759 21.144C47.0359 21.144 46.4439 21.032 45.8999 20.808C45.3639 20.584 44.8919 20.272 44.4839 19.872C44.0759 19.472 43.7599 19.008 43.5359 18.48C43.3119 17.944 43.1999 17.368 43.1999 16.752C43.1999 16.128 43.3119 15.552 43.5359 15.024C43.7599 14.496 44.0719 14.036 44.4719 13.644C44.8719 13.244 45.3399 12.936 45.8759 12.72C46.4199 12.496 47.0119 12.384 47.6519 12.384C48.2839 12.384 48.8679 12.496 49.4039 12.72C49.9479 12.936 50.4199 13.244 50.8199 13.644C51.2279 14.036 51.5439 14.5 51.7679 15.036C51.9919 15.564 52.1039 16.14 52.1039 16.764C52.1039 17.38 51.9919 17.956 51.7679 18.492C51.5439 19.02 51.2319 19.484 50.8319 19.884C50.4319 20.276 49.9599 20.584 49.4159 20.808C48.8799 21.032 48.2999 21.144 47.6759 21.144ZM47.6519 19.428C48.1559 19.428 48.5959 19.316 48.9719 19.092C49.3559 18.868 49.6519 18.556 49.8599 18.156C50.0679 17.748 50.1719 17.28 50.1719 16.752C50.1719 16.352 50.1119 15.992 49.9919 15.672C49.8719 15.344 49.6999 15.064 49.4759 14.832C49.2519 14.592 48.9839 14.412 48.6719 14.292C48.3679 14.164 48.0279 14.1 47.6519 14.1C47.1479 14.1 46.7039 14.212 46.3199 14.436C45.9439 14.652 45.6519 14.96 45.4439 15.36C45.2359 15.752 45.1319 16.216 45.1319 16.752C45.1319 17.152 45.1919 17.516 45.3119 17.844C45.4319 18.172 45.5999 18.456 45.8159 18.696C46.0399 18.928 46.3079 19.108 46.6199 19.236C46.9319 19.364 47.2759 19.428 47.6519 19.428ZM56.9479 21.132C56.2519 21.132 55.6359 20.984 55.0999 20.688C54.5719 20.392 54.1559 19.984 53.8519 19.464C53.5559 18.936 53.4079 18.336 53.4079 17.664V12.528H55.3039V17.772C55.3039 18.108 55.3759 18.4 55.5199 18.648C55.6639 18.896 55.8599 19.088 56.1079 19.224C56.3639 19.352 56.6439 19.416 56.9479 19.416C57.2679 19.416 57.5479 19.352 57.7879 19.224C58.0279 19.088 58.2159 18.9 58.3519 18.66C58.4959 18.412 58.5679 18.12 58.5679 17.784V12.528H60.4639V17.676C60.4639 18.348 60.3159 18.944 60.0199 19.464C59.7239 19.984 59.3119 20.392 58.7839 20.688C58.2559 20.984 57.6439 21.132 56.9479 21.132ZM64.2348 21V12.648H66.1188V21H64.2348ZM61.5828 14.172V12.528H68.7708V14.172H61.5828ZM75.8085 21.132C75.1125 21.132 74.4965 20.984 73.9605 20.688C73.4325 20.392 73.0165 19.984 72.7125 19.464C72.4165 18.936 72.2685 18.336 72.2685 17.664V12.528H74.1645V17.772C74.1645 18.108 74.2365 18.4 74.3805 18.648C74.5245 18.896 74.7205 19.088 74.9685 19.224C75.2245 19.352 75.5045 19.416 75.8085 19.416C76.1285 19.416 76.4085 19.352 76.6485 19.224C76.8885 19.088 77.0765 18.9 77.2125 18.66C77.3565 18.412 77.4285 18.12 77.4285 17.784V12.528H79.3245V17.676C79.3245 18.348 79.1765 18.944 78.8805 19.464C78.5845 19.984 78.1725 20.392 77.6445 20.688C77.1165 20.984 76.5045 21.132 75.8085 21.132ZM83.5166 21.132C82.8206 21.132 82.2206 21.02 81.7166 20.796C81.2206 20.564 80.7646 20.216 80.3486 19.752L81.5726 18.54C81.8446 18.852 82.1446 19.096 82.4726 19.272C82.8086 19.44 83.1966 19.524 83.6366 19.524C84.0366 19.524 84.3446 19.452 84.5606 19.308C84.7846 19.164 84.8966 18.964 84.8966 18.708C84.8966 18.476 84.8246 18.288 84.6806 18.144C84.5366 18 84.3446 17.876 84.1046 17.772C83.8726 17.668 83.6126 17.568 83.3246 17.472C83.0446 17.376 82.7646 17.268 82.4846 17.148C82.2046 17.02 81.9446 16.864 81.7046 16.68C81.4726 16.488 81.2846 16.252 81.1406 15.972C80.9966 15.684 80.9246 15.324 80.9246 14.892C80.9246 14.372 81.0486 13.924 81.2966 13.548C81.5526 13.172 81.9046 12.888 82.3526 12.696C82.8006 12.496 83.3166 12.396 83.9006 12.396C84.4926 12.396 85.0326 12.5 85.5206 12.708C86.0166 12.916 86.4246 13.2 86.7446 13.56L85.5206 14.772C85.2646 14.508 85.0046 14.312 84.7406 14.184C84.4846 14.056 84.1926 13.992 83.8646 13.992C83.5366 13.992 83.2766 14.056 83.0846 14.184C82.8926 14.304 82.7966 14.48 82.7966 14.712C82.7966 14.928 82.8686 15.104 83.0126 15.24C83.1566 15.368 83.3446 15.48 83.5766 15.576C83.8166 15.672 84.0766 15.768 84.3566 15.864C84.6446 15.96 84.9286 16.072 85.2086 16.2C85.4886 16.328 85.7446 16.492 85.9766 16.692C86.2166 16.884 86.4086 17.132 86.5526 17.436C86.6966 17.732 86.7686 18.1 86.7686 18.54C86.7686 19.348 86.4806 19.984 85.9046 20.448C85.3286 20.904 84.5326 21.132 83.5166 21.132Z" fill="#2C2825"/>
</svg>
