<svg width="295" height="71" viewBox="0 0 295 71" fill="none" xmlns="http://www.w3.org/2000/svg">
<path d="M0 0H295V70H0V0Z" fill="white"/>
<path d="M295 70V69.5H0V70V70.5H295V70Z" fill="#595959"/>
<path d="M23.793 28.084C25.1862 28.084 26.4134 28.377 27.4746 28.9629C28.5423 29.5423 29.3757 30.3594 29.9746 31.4141C30.5801 32.4622 30.8828 33.6895 30.8828 35.0957C30.8828 36.5215 30.5931 37.7845 30.0137 38.8848C29.4342 39.9785 28.6139 40.8379 27.5527 41.4629C26.498 42.0814 25.2448 42.3906 23.793 42.3906C22.3216 42.3906 21.0553 42.0911 19.9941 41.4922C18.9329 40.8867 18.1159 40.0404 17.543 38.9531C16.9701 37.8659 16.6836 36.5964 16.6836 35.1445C16.6836 33.7513 16.9863 32.5241 17.5918 31.4629C18.2038 30.4017 19.0436 29.5749 20.1113 28.9824C21.179 28.3835 22.4062 28.084 23.793 28.084ZM25.9414 38.1133C25.9414 37.0846 25.8405 36.0853 25.6387 35.1152C25.5866 34.8678 25.502 34.5391 25.3848 34.1289C25.2676 33.7188 25.1178 33.2858 24.9355 32.8301C24.7598 32.3743 24.5547 31.9414 24.3203 31.5312C24.0924 31.1211 23.8385 30.7891 23.5586 30.5352C23.2852 30.2747 22.9922 30.1445 22.6797 30.1445C22.3477 30.1445 22.11 30.2812 21.9668 30.5547C21.8301 30.8281 21.7454 31.1406 21.7129 31.4922C21.6868 31.8372 21.6738 32.127 21.6738 32.3613C21.6738 33.1686 21.7389 33.9759 21.8691 34.7832C22.0059 35.584 22.2142 36.3652 22.4941 37.127C22.5723 37.3483 22.6895 37.6348 22.8457 37.9863C23.0085 38.3379 23.2005 38.6895 23.4219 39.041C23.6432 39.3926 23.8809 39.6888 24.1348 39.9297C24.3952 40.1706 24.6621 40.291 24.9355 40.291C25.2676 40.291 25.502 40.1576 25.6387 39.8906C25.7819 39.6237 25.8665 39.3177 25.8926 38.9727C25.9251 38.6276 25.9414 38.3411 25.9414 38.1133ZM33.9547 42.3027C33.5055 42.3027 33.1116 42.1823 32.773 41.9414C32.4345 41.7005 32.1676 41.388 31.9723 41.0039C31.7835 40.6198 31.6891 40.2161 31.6891 39.793C31.6891 39.3633 31.7835 38.9596 31.9723 38.582C32.1676 38.1979 32.4345 37.8887 32.773 37.6543C33.1116 37.4134 33.5055 37.293 33.9547 37.293C34.4104 37.293 34.8076 37.4134 35.1461 37.6543C35.4911 37.8887 35.7613 38.1947 35.9566 38.5723C36.152 38.9499 36.2496 39.3568 36.2496 39.793C36.2496 40.2227 36.152 40.6296 35.9566 41.0137C35.7613 41.3913 35.4911 41.7005 35.1461 41.9414C34.801 42.1823 34.4039 42.3027 33.9547 42.3027ZM50.5812 38.7578C50.5812 39.4219 50.4348 39.9655 50.1418 40.3887C49.8488 40.8118 49.4615 41.1406 48.9797 41.375C48.5044 41.6094 47.9868 41.7721 47.427 41.8633C46.8671 41.9544 46.3169 42 45.7766 42H38.1203C37.7687 42 37.4855 41.9154 37.2707 41.7461C37.0624 41.5768 36.9582 41.3066 36.9582 40.9355C36.9582 40.61 37.0233 40.3659 37.1535 40.2031C37.2902 40.0339 37.4465 39.8971 37.6223 39.793C37.798 39.6888 37.951 39.5684 38.0812 39.4316C38.218 39.2884 38.2863 39.0801 38.2863 38.8066V31.6777C38.2863 31.3913 38.218 31.1797 38.0812 31.043C37.951 30.9062 37.798 30.7891 37.6223 30.6914C37.4465 30.5872 37.2902 30.4538 37.1535 30.291C37.0233 30.1283 36.9582 29.8809 36.9582 29.5488C36.9582 29.1777 37.0624 28.9076 37.2707 28.7383C37.4855 28.569 37.7687 28.4844 38.1203 28.4844H44.0871C44.7251 28.4844 45.3794 28.5527 46.05 28.6895C46.7271 28.8262 47.3521 29.0508 47.925 29.3633C48.4979 29.6758 48.9602 30.0924 49.3117 30.6133C49.6698 31.1341 49.8488 31.7786 49.8488 32.5469C49.8488 33.3867 49.5917 34.0475 49.0773 34.5293C48.5695 35.0046 47.9641 35.3464 47.2609 35.5547C47.8273 35.6784 48.3612 35.8737 48.8625 36.1406C49.3703 36.401 49.7837 36.7461 50.1027 37.1758C50.4217 37.6055 50.5812 38.1328 50.5812 38.7578ZM43.1496 30.4473H43.091V35.1055H43.4426C44.1783 35.1055 44.6828 34.8939 44.9562 34.4707C45.2362 34.0475 45.3762 33.5007 45.3762 32.8301C45.3762 32.1009 45.1939 31.5215 44.8293 31.0918C44.4647 30.6621 43.9048 30.4473 43.1496 30.4473ZM45.8742 38.5527C45.8742 38.0319 45.7212 37.6022 45.4152 37.2637C45.1158 36.9186 44.6958 36.7461 44.1555 36.7461H43.091V38.416C43.091 38.9108 43.2115 39.3079 43.4523 39.6074C43.6932 39.9004 44.0708 40.0469 44.5852 40.0469C45.0604 40.0469 45.3924 39.9069 45.5812 39.627C45.7766 39.347 45.8742 38.9889 45.8742 38.5527ZM53.1063 42.3027C52.657 42.3027 52.2632 42.1823 51.9246 41.9414C51.5861 41.7005 51.3191 41.388 51.1238 41.0039C50.935 40.6198 50.8406 40.2161 50.8406 39.793C50.8406 39.3633 50.935 38.9596 51.1238 38.582C51.3191 38.1979 51.5861 37.8887 51.9246 37.6543C52.2632 37.4134 52.657 37.293 53.1063 37.293C53.562 37.293 53.9591 37.4134 54.2977 37.6543C54.6427 37.8887 54.9129 38.1947 55.1082 38.5723C55.3035 38.9499 55.4012 39.3568 55.4012 39.793C55.4012 40.2227 55.3035 40.6296 55.1082 41.0137C54.9129 41.3913 54.6427 41.7005 54.2977 41.9414C53.9526 42.1823 53.5555 42.3027 53.1063 42.3027Z" fill="#2C2825"/>
<path d="M252.75 35H275.25" stroke="black" stroke-width="1.5" stroke-linecap="round"/>
<path d="M252.75 27.5H275.25" stroke="black" stroke-width="1.5" stroke-linecap="round"/>
<path d="M252.75 42.5H275.25" stroke="black" stroke-width="1.5" stroke-linecap="round"/>
</svg>
