<svg width="720" height="83" viewBox="0 0 720 83" fill="none" xmlns="http://www.w3.org/2000/svg">
<path d="M0 0H720V82H0V0Z" fill="white"/>
<path d="M720 82V81.5H0V82V82.5H720V82Z" fill="#595959"/>
<path d="M10.9102 31.5176C12.8607 31.5176 14.5788 31.9277 16.0645 32.748C17.5592 33.5592 18.7259 34.7031 19.5645 36.1797C20.4121 37.6471 20.8359 39.3652 20.8359 41.334C20.8359 43.3301 20.4303 45.0983 19.6191 46.6387C18.8079 48.1699 17.6595 49.373 16.1738 50.248C14.6973 51.1139 12.9427 51.5469 10.9102 51.5469C8.85026 51.5469 7.07747 51.1276 5.5918 50.2891C4.10612 49.4414 2.96224 48.2565 2.16016 46.7344C1.35807 45.2122 0.957031 43.4349 0.957031 41.4023C0.957031 39.4518 1.38086 37.7337 2.22852 36.248C3.08529 34.7624 4.26107 33.6048 5.75586 32.7754C7.25065 31.9368 8.96875 31.5176 10.9102 31.5176ZM13.918 45.5586C13.918 44.1185 13.7767 42.7194 13.4941 41.3613C13.4212 41.015 13.3027 40.5547 13.1387 39.9805C12.9746 39.4062 12.765 38.8001 12.5098 38.1621C12.2637 37.5241 11.9766 36.918 11.6484 36.3438C11.3294 35.7695 10.974 35.3047 10.582 34.9492C10.1992 34.5846 9.78906 34.4023 9.35156 34.4023C8.88672 34.4023 8.55404 34.5938 8.35352 34.9766C8.16211 35.3594 8.04362 35.7969 7.99805 36.2891C7.96159 36.7721 7.94336 37.1777 7.94336 37.5059C7.94336 38.6361 8.03451 39.7663 8.2168 40.8965C8.4082 42.0176 8.69987 43.1113 9.0918 44.1777C9.20117 44.4876 9.36523 44.8887 9.58398 45.3809C9.81185 45.873 10.0807 46.3652 10.3906 46.8574C10.7005 47.3496 11.0332 47.7643 11.3887 48.1016C11.7533 48.4388 12.127 48.6074 12.5098 48.6074C12.9746 48.6074 13.3027 48.4206 13.4941 48.0469C13.6947 47.6732 13.8132 47.2448 13.8496 46.7617C13.8952 46.2786 13.918 45.8776 13.918 45.5586ZM26.6268 51.3965C25.7609 51.3965 25.0363 51.1777 24.453 50.7402C23.8787 50.2936 23.4504 49.7148 23.1678 49.0039C22.8853 48.293 22.744 47.5456 22.744 46.7617V42.1133C22.744 41.776 22.7166 41.5391 22.662 41.4023C22.6073 41.2565 22.4523 41.0697 22.1971 40.8418C21.9966 40.6595 21.8052 40.4909 21.6229 40.3359C21.4497 40.1719 21.3631 39.9349 21.3631 39.625C21.3631 39.2695 21.4771 38.9915 21.7049 38.791C21.9419 38.5814 22.2108 38.4173 22.5116 38.2988L25.5194 37.1094C25.8748 36.9635 26.2303 36.8359 26.5858 36.7266C26.9504 36.6172 27.3286 36.5625 27.7205 36.5625C28.0942 36.5625 28.3814 36.6947 28.5819 36.959C28.7824 37.2142 28.8827 37.515 28.8827 37.8613V45.2852C28.8827 45.5404 28.91 45.8138 28.9647 46.1055C29.0285 46.3971 29.147 46.6478 29.3202 46.8574C29.4933 47.0579 29.744 47.1582 30.0721 47.1582C30.4093 47.1582 30.7056 47.0853 30.9608 46.9395C31.216 46.7845 31.4484 46.5977 31.658 46.3789V42.1133C31.658 41.7669 31.6261 41.5163 31.5623 41.3613C31.5077 41.1973 31.339 41.0059 31.0565 40.7871C30.8468 40.623 30.6646 40.4635 30.5096 40.3086C30.3547 40.1536 30.2772 39.9258 30.2772 39.625C30.2772 39.2695 30.3911 38.9915 30.619 38.791C30.856 38.5814 31.1248 38.4173 31.4256 38.2988L34.4334 37.1094C34.7889 36.9635 35.1444 36.8359 35.4998 36.7266C35.8644 36.6172 36.2427 36.5625 36.6346 36.5625C37.0083 36.5625 37.2954 36.6901 37.4959 36.9453C37.7056 37.2005 37.8104 37.5059 37.8104 37.8613V46.8848C37.8104 47.14 37.8195 47.3952 37.8377 47.6504C37.8651 47.8965 37.9699 48.1243 38.1522 48.334C38.3801 48.5801 38.5806 48.7852 38.7537 48.9492C38.9269 49.1133 39.0135 49.3822 39.0135 49.7559C39.0135 50.166 38.8905 50.4759 38.6444 50.6855C38.3983 50.8952 38.0747 51 37.6737 51H34.5565C33.8638 51 33.2531 50.7402 32.7245 50.2207C32.2049 49.7012 31.9452 49.0996 31.9452 48.416C31.4439 48.8991 30.897 49.3685 30.3045 49.8242C29.7121 50.2799 29.1014 50.6582 28.4725 50.959C27.8527 51.2507 27.2375 51.3965 26.6268 51.3965ZM47.197 42.8926V46.8848C47.197 47.4134 47.2562 47.7689 47.3747 47.9512C47.5023 48.1335 47.8304 48.2793 48.3591 48.3887C48.8239 48.4798 49.193 48.5892 49.4665 48.7168C49.749 48.8353 49.8903 49.1816 49.8903 49.7559C49.8903 50.166 49.7673 50.4759 49.5212 50.6855C49.2751 50.8952 48.9515 51 48.5505 51H41.3317C40.9398 51 40.6162 50.8952 40.361 50.6855C40.1058 50.4759 39.9782 50.166 39.9782 49.7559C39.9782 49.4277 40.0374 49.1816 40.1559 49.0176C40.2835 48.8535 40.4248 48.7077 40.5798 48.5801C40.7438 48.4434 40.8851 48.2702 41.0036 48.0605C41.1312 47.8418 41.195 47.5137 41.195 47.0762V42.1133C41.195 41.7031 41.1221 41.3978 40.9762 41.1973C40.8395 40.9876 40.68 40.8236 40.4977 40.7051C40.3246 40.5866 40.1651 40.4544 40.0192 40.3086C39.8825 40.1536 39.8141 39.9258 39.8141 39.625C39.8141 39.2695 39.9281 38.9915 40.1559 38.791C40.3929 38.5814 40.6618 38.4173 40.9626 38.2988L44.3805 36.9453C44.5993 36.8542 44.8226 36.7676 45.0505 36.6855C45.2783 36.6035 45.5153 36.5625 45.7614 36.5625C46.0804 36.5625 46.3174 36.6855 46.4723 36.9316C46.6273 37.1686 46.7321 37.4466 46.7868 37.7656C46.8506 38.0755 46.8962 38.349 46.9235 38.5859C46.9509 38.75 46.9782 38.9141 47.0055 39.0781C47.0329 39.2422 47.0557 39.4062 47.0739 39.5703C47.3565 38.7318 47.7894 38.0208 48.3727 37.4375C48.9652 36.8542 49.7809 36.5625 50.82 36.5625C51.5583 36.5625 52.1371 36.7448 52.5563 37.1094C52.9847 37.474 53.2901 37.9434 53.4723 38.5176C53.6546 39.0827 53.7458 39.6842 53.7458 40.3223C53.7458 40.9147 53.6683 41.4889 53.5134 42.0449C53.3584 42.5918 53.085 43.043 52.693 43.3984C52.3102 43.7539 51.7679 43.9316 51.0661 43.9316C50.3005 43.9316 49.7399 43.8132 49.3845 43.5762C49.0381 43.3392 48.8148 43.0475 48.7145 42.7012C48.6143 42.3548 48.5596 42.0085 48.5505 41.6621C48.5505 41.3158 48.5231 41.0241 48.4684 40.7871C48.4137 40.5501 48.2497 40.4316 47.9762 40.4316C47.7302 40.4316 47.5524 40.6048 47.443 40.9512C47.3337 41.2884 47.2653 41.653 47.238 42.0449C47.2106 42.4368 47.197 42.7194 47.197 42.8926ZM79.3002 46.4609C79.3002 47.3906 79.0951 48.1517 78.6849 48.7441C78.2748 49.3366 77.7324 49.7969 77.058 50.125C76.3926 50.4531 75.668 50.681 74.8841 50.8086C74.1003 50.9362 73.3301 51 72.5736 51H61.8548C61.3627 51 60.9662 50.8815 60.6654 50.6445C60.3737 50.4076 60.2279 50.0293 60.2279 49.5098C60.2279 49.054 60.319 48.7122 60.5013 48.4844C60.6927 48.2474 60.9115 48.056 61.1576 47.9102C61.4037 47.7643 61.6179 47.5957 61.8002 47.4043C61.9916 47.2038 62.0873 46.9121 62.0873 46.5293V36.5488C62.0873 36.1478 61.9916 35.8516 61.8002 35.6602C61.6179 35.4688 61.4037 35.3047 61.1576 35.168C60.9115 35.0221 60.6927 34.8353 60.5013 34.6074C60.319 34.3796 60.2279 34.0332 60.2279 33.5684C60.2279 33.0488 60.3737 32.6706 60.6654 32.4336C60.9662 32.1966 61.3627 32.0781 61.8548 32.0781H70.2084C71.1016 32.0781 72.0176 32.1738 72.9564 32.3652C73.9043 32.5566 74.7793 32.8711 75.5814 33.3086C76.3835 33.7461 77.0306 34.3294 77.5228 35.0586C78.0241 35.7878 78.2748 36.6901 78.2748 37.7656C78.2748 38.9414 77.9147 39.8665 77.1947 40.541C76.4837 41.2064 75.6361 41.6849 74.6517 41.9766C75.4447 42.1497 76.1921 42.4232 76.8939 42.7969C77.6048 43.1615 78.1836 43.6445 78.6302 44.2461C79.0768 44.8477 79.3002 45.5859 79.3002 46.4609ZM68.8959 34.8262H68.8138V41.3477H69.306C70.336 41.3477 71.0423 41.0514 71.4252 40.459C71.8171 39.8665 72.013 39.1009 72.013 38.1621C72.013 37.1413 71.7578 36.3301 71.2474 35.7285C70.737 35.127 69.9532 34.8262 68.8959 34.8262ZM72.7103 46.1738C72.7103 45.4447 72.4961 44.8431 72.0677 44.3691C71.6485 43.8861 71.0606 43.6445 70.3041 43.6445H68.8138V45.9824C68.8138 46.6751 68.9824 47.2311 69.3197 47.6504C69.6569 48.0605 70.1856 48.2656 70.9056 48.2656C71.571 48.2656 72.0358 48.0697 72.3002 47.6777C72.5736 47.2858 72.7103 46.7845 72.7103 46.1738ZM85.8156 30.4375C86.1893 30.4375 86.4764 30.5651 86.677 30.8203C86.8866 31.0755 86.9914 31.3809 86.9914 31.7363V46.8848C86.9914 47.1491 87.0051 47.4089 87.0324 47.6641C87.0598 47.9102 87.1737 48.1335 87.3742 48.334C87.6203 48.5801 87.83 48.7806 88.0031 48.9355C88.1854 49.0814 88.2766 49.3548 88.2766 49.7559C88.2766 50.166 88.149 50.4759 87.8938 50.6855C87.6385 50.8952 87.315 51 86.923 51H80.9074C80.5155 51 80.1919 50.8952 79.9367 50.6855C79.6815 50.4759 79.5539 50.166 79.5539 49.7559C79.5539 49.4095 79.6177 49.1589 79.7453 49.0039C79.8729 48.8398 80.0233 48.6986 80.1965 48.5801C80.3697 48.4616 80.5201 48.2975 80.6477 48.0879C80.7753 47.8691 80.8391 47.5273 80.8391 47.0625V35.9746C80.8391 35.5371 80.7661 35.2181 80.6203 35.0176C80.4745 34.8171 80.3013 34.6667 80.1008 34.5664C79.9094 34.457 79.7408 34.334 79.5949 34.1973C79.4491 34.0514 79.3762 33.819 79.3762 33.5C79.3762 33.1354 79.4947 32.8529 79.7316 32.6523C79.9686 32.4518 80.2375 32.2923 80.5383 32.1738L83.5871 30.9844C83.9517 30.8385 84.3163 30.7109 84.6809 30.6016C85.0454 30.4922 85.4237 30.4375 85.8156 30.4375ZM96.5967 36.5625C98.1006 36.5625 99.4177 36.8724 100.548 37.4922C101.687 38.112 102.576 38.9824 103.214 40.1035C103.852 41.2246 104.171 42.5417 104.171 44.0547C104.171 45.5404 103.82 46.8346 103.118 47.9375C102.416 49.0312 101.473 49.8835 100.288 50.4941C99.1123 51.0957 97.8044 51.3965 96.3643 51.3965C94.8513 51.3965 93.5251 51.0866 92.3858 50.4668C91.2465 49.8379 90.3578 48.9583 89.7198 47.8281C89.0909 46.6888 88.7764 45.3626 88.7764 43.8496C88.7764 42.373 89.1319 41.0879 89.8428 39.9941C90.5537 38.9004 91.5017 38.0573 92.6866 37.4648C93.8715 36.8633 95.1748 36.5625 96.5967 36.5625ZM97.376 48.375C97.6039 48.375 97.7634 48.2565 97.8545 48.0195C97.9548 47.7826 98.0186 47.5228 98.0459 47.2402C98.0733 46.9486 98.087 46.7253 98.087 46.5703C98.087 46.0508 98.0459 45.5358 97.9639 45.0254C97.8819 44.5059 97.7771 43.9954 97.6495 43.4941C97.6039 43.2936 97.5173 42.9837 97.3897 42.5645C97.2621 42.1361 97.1071 41.6895 96.9248 41.2246C96.7426 40.7598 96.542 40.3633 96.3233 40.0352C96.1045 39.707 95.8721 39.543 95.626 39.543C95.4164 39.543 95.2614 39.6615 95.1612 39.8984C95.07 40.1354 95.0108 40.3997 94.9834 40.6914C94.9561 40.974 94.9424 41.1882 94.9424 41.334C94.9424 41.5801 94.9789 41.9766 95.0518 42.5234C95.1247 43.0612 95.2295 43.6628 95.3662 44.3281C95.5121 44.9935 95.6853 45.6361 95.8858 46.2559C96.0863 46.8665 96.3096 47.3724 96.5557 47.7734C96.8109 48.1745 97.0843 48.375 97.376 48.375ZM112.628 36.5625C114.132 36.5625 115.449 36.8724 116.579 37.4922C117.718 38.112 118.607 38.9824 119.245 40.1035C119.883 41.2246 120.202 42.5417 120.202 44.0547C120.202 45.5404 119.851 46.8346 119.149 47.9375C118.447 49.0312 117.504 49.8835 116.319 50.4941C115.143 51.0957 113.835 51.3965 112.395 51.3965C110.882 51.3965 109.556 51.0866 108.417 50.4668C107.278 49.8379 106.389 48.9583 105.751 47.8281C105.122 46.6888 104.808 45.3626 104.808 43.8496C104.808 42.373 105.163 41.0879 105.874 39.9941C106.585 38.9004 107.533 38.0573 108.718 37.4648C109.903 36.8633 111.206 36.5625 112.628 36.5625ZM113.407 48.375C113.635 48.375 113.794 48.2565 113.886 48.0195C113.986 47.7826 114.05 47.5228 114.077 47.2402C114.104 46.9486 114.118 46.7253 114.118 46.5703C114.118 46.0508 114.077 45.5358 113.995 45.0254C113.913 44.5059 113.808 43.9954 113.681 43.4941C113.635 43.2936 113.548 42.9837 113.421 42.5645C113.293 42.1361 113.138 41.6895 112.956 41.2246C112.774 40.7598 112.573 40.3633 112.354 40.0352C112.136 39.707 111.903 39.543 111.657 39.543C111.447 39.543 111.293 39.6615 111.192 39.8984C111.101 40.1354 111.042 40.3997 111.015 40.6914C110.987 40.974 110.974 41.1882 110.974 41.334C110.974 41.5801 111.01 41.9766 111.083 42.5234C111.156 43.0612 111.261 43.6628 111.397 44.3281C111.543 44.9935 111.716 45.6361 111.917 46.2559C112.117 46.8665 112.341 47.3724 112.587 47.7734C112.842 48.1745 113.115 48.375 113.407 48.375ZM126.964 36.5625C127.337 36.5625 127.62 36.6947 127.811 36.959C128.012 37.2142 128.112 37.515 128.112 37.8613V39.2422C128.823 38.5677 129.607 37.9525 130.464 37.3965C131.329 36.8405 132.173 36.5625 132.993 36.5625C133.968 36.5625 134.747 36.8451 135.331 37.4102C135.914 37.9753 136.32 38.6634 136.548 39.4746C137.031 39.0007 137.55 38.5404 138.106 38.0938C138.662 37.6471 139.241 37.2826 139.842 37C140.444 36.7083 141.055 36.5625 141.675 36.5625C142.54 36.5625 143.251 36.7904 143.807 37.2461C144.372 37.6927 144.787 38.2715 145.051 38.9824C145.325 39.6842 145.462 40.4225 145.462 41.1973V46.8848C145.462 47.0944 145.475 47.3587 145.503 47.6777C145.53 47.9876 145.63 48.2155 145.803 48.3613V48.375C146.004 48.5846 146.182 48.7897 146.337 48.9902C146.492 49.1816 146.569 49.4368 146.569 49.7559C146.569 50.1569 146.446 50.4668 146.2 50.6855C145.954 50.8952 145.635 51 145.243 51H139.624C139.25 51 138.958 50.8861 138.749 50.6582C138.539 50.4212 138.434 50.1204 138.434 49.7559C138.434 49.4186 138.512 49.1589 138.667 48.9766C138.831 48.7943 138.99 48.5938 139.145 48.375C139.3 48.1471 139.378 47.819 139.378 47.3906V42.6738C139.378 42.4186 139.35 42.1497 139.296 41.8672C139.241 41.5755 139.132 41.3249 138.967 41.1152C138.803 40.9056 138.557 40.8008 138.229 40.8008C137.928 40.8008 137.66 40.8828 137.423 41.0469C137.195 41.2109 136.981 41.3932 136.78 41.5938V47.2676C136.78 47.7507 136.857 48.1107 137.012 48.3477C137.167 48.5846 137.322 48.7943 137.477 48.9766C137.632 49.1589 137.71 49.4186 137.71 49.7559C137.71 50.1296 137.605 50.4303 137.395 50.6582C137.195 50.8861 136.903 51 136.52 51H130.942C130.559 51 130.268 50.8861 130.067 50.6582C129.867 50.4212 129.766 50.1204 129.766 49.7559C129.766 49.4186 129.844 49.1589 129.999 48.9766C130.154 48.7852 130.309 48.5801 130.464 48.3613C130.619 48.1426 130.696 47.819 130.696 47.3906V42.6738C130.696 42.4186 130.669 42.1497 130.614 41.8672C130.559 41.5755 130.45 41.3249 130.286 41.1152C130.122 40.9056 129.876 40.8008 129.548 40.8008C129.256 40.8008 128.992 40.8828 128.755 41.0469C128.518 41.2018 128.303 41.3841 128.112 41.5938V47.2676C128.112 47.7598 128.19 48.1243 128.344 48.3613C128.499 48.5983 128.654 48.8079 128.809 48.9902C128.964 49.1634 129.042 49.4186 129.042 49.7559C129.042 50.1204 128.941 50.4212 128.741 50.6582C128.54 50.8861 128.249 51 127.866 51H122.247C121.855 51 121.536 50.8952 121.29 50.6855C121.044 50.4668 120.921 50.1569 120.921 49.7559C120.921 49.3548 121.012 49.0586 121.194 48.8672C121.385 48.6758 121.572 48.4707 121.755 48.252C121.937 48.0241 122.028 47.6686 122.028 47.1855V42.1133C122.028 41.7031 121.964 41.3978 121.837 41.1973C121.709 40.9876 121.563 40.8236 121.399 40.7051C121.235 40.5866 121.089 40.4544 120.962 40.3086C120.834 40.1536 120.77 39.9258 120.77 39.625C120.77 39.2513 120.88 38.9688 121.098 38.7773C121.326 38.5859 121.595 38.4264 121.905 38.2988L124.79 37.1094C125.136 36.9635 125.487 36.8359 125.842 36.7266C126.207 36.6172 126.581 36.5625 126.964 36.5625ZM153.249 38.9004C152.939 38.9004 152.661 38.9688 152.415 39.1055C152.169 39.2422 152.045 39.4883 152.045 39.8438C152.045 40.1354 152.114 40.3587 152.251 40.5137C152.387 40.6686 152.583 40.8008 152.838 40.9102C153.112 41.0286 153.399 41.1152 153.7 41.1699C154.001 41.2246 154.292 41.2839 154.575 41.3477C155.413 41.5299 156.197 41.8398 156.926 42.2773C157.655 42.7057 158.243 43.2617 158.69 43.9453C159.146 44.6198 159.374 45.4219 159.374 46.3516C159.374 47.6003 159.091 48.5938 158.526 49.332C157.961 50.0703 157.209 50.599 156.27 50.918C155.34 51.237 154.32 51.3965 153.208 51.3965C152.925 51.3965 152.533 51.36 152.032 51.2871C151.54 51.2142 151.175 51.1139 150.938 50.9863H150.924C150.833 50.9408 150.683 50.8906 150.473 50.8359C150.264 50.7812 150.109 50.7539 150.008 50.7539C149.726 50.7539 149.484 50.8633 149.284 51.082C149.083 51.3099 148.837 51.4238 148.545 51.4238C148.154 51.4238 147.844 51.2962 147.616 51.041C147.397 50.7858 147.228 50.485 147.11 50.1387C147.001 49.7832 146.9 49.4551 146.809 49.1543C146.745 48.8991 146.672 48.6484 146.59 48.4023C146.508 48.1471 146.467 47.8874 146.467 47.623C146.467 47.1491 146.595 46.7663 146.85 46.4746C147.105 46.1829 147.475 46.0371 147.958 46.0371C148.432 46.0371 148.823 46.1419 149.133 46.3516C149.443 46.5521 149.717 46.8027 149.954 47.1035C150.2 47.4043 150.446 47.7096 150.692 48.0195C150.947 48.3203 151.253 48.5755 151.608 48.7852C151.963 48.9857 152.41 49.0859 152.948 49.0859C153.322 49.0859 153.604 48.9766 153.795 48.7578C153.987 48.5299 154.083 48.2383 154.083 47.8828C154.083 47.3724 153.946 47.0443 153.672 46.8984C153.399 46.7526 153.048 46.6387 152.62 46.5566C151.836 46.4017 151.088 46.2194 150.378 46.0098C149.676 45.8001 149.051 45.513 148.504 45.1484C147.967 44.7839 147.538 44.3008 147.219 43.6992C146.909 43.0977 146.754 42.3229 146.754 41.375C146.754 40.2539 147.06 39.3424 147.67 38.6406C148.281 37.9297 149.056 37.4056 149.995 37.0684C150.943 36.7311 151.904 36.5625 152.879 36.5625C153.253 36.5625 153.618 36.5762 153.973 36.6035C154.338 36.6309 154.698 36.7038 155.053 36.8223C155.099 36.8314 155.204 36.8678 155.368 36.9316C155.541 36.9954 155.71 37.0592 155.874 37.123C156.038 37.1777 156.12 37.2051 156.12 37.2051C156.42 37.2051 156.676 37.1003 156.885 36.8906C157.104 36.6719 157.364 36.5625 157.665 36.5625C158.047 36.5625 158.33 36.7129 158.512 37.0137C158.695 37.3053 158.822 37.6471 158.895 38.0391C158.977 38.431 159.041 38.7637 159.086 39.0371C159.123 39.2467 159.159 39.4609 159.196 39.6797C159.232 39.8893 159.251 40.099 159.251 40.3086C159.251 40.6732 159.164 41.0195 158.991 41.3477C158.827 41.6667 158.53 41.8262 158.102 41.8262C157.674 41.8262 157.295 41.6803 156.967 41.3887C156.639 41.0879 156.311 40.7461 155.983 40.3633C155.655 39.9805 155.277 39.6432 154.848 39.3516C154.42 39.0508 153.887 38.9004 153.249 38.9004ZM169.676 53.2285C168.154 53.2285 166.778 52.946 165.547 52.3809C164.317 51.8249 163.26 51.0547 162.375 50.0703C161.5 49.0768 160.826 47.9329 160.352 46.6387C159.887 45.3444 159.655 43.9635 159.655 42.4961C159.655 41.0195 159.887 39.6432 160.352 38.3672C160.826 37.0911 161.505 35.9746 162.389 35.0176C163.273 34.0514 164.33 33.2995 165.561 32.7617C166.791 32.2148 168.163 31.9414 169.676 31.9414C171.198 31.9414 172.575 32.2103 173.805 32.748C175.036 33.2858 176.088 34.0378 176.963 35.0039C177.847 35.9701 178.522 37.0911 178.987 38.3672C179.461 39.6432 179.698 41.0195 179.698 42.4961C179.698 43.9727 179.465 45.3581 179 46.6523C178.536 47.9466 177.866 49.0905 176.991 50.084C176.116 51.0684 175.058 51.8385 173.819 52.3945C172.588 52.9505 171.207 53.2285 169.676 53.2285ZM169.676 50.8359C171.244 50.8359 172.602 50.4531 173.75 49.6875C174.908 48.9219 175.801 47.9056 176.43 46.6387C177.059 45.3717 177.373 43.9909 177.373 42.4961C177.373 40.9922 177.054 39.625 176.416 38.3945C175.788 37.1549 174.894 36.1706 173.737 35.4414C172.588 34.7031 171.235 34.334 169.676 34.334C168.108 34.334 166.75 34.6986 165.602 35.4277C164.454 36.1569 163.569 37.1367 162.95 38.3672C162.33 39.5977 162.02 40.974 162.02 42.4961C162.02 44.0091 162.325 45.3991 162.936 46.666C163.556 47.9238 164.435 48.9355 165.575 49.7012C166.723 50.4577 168.09 50.8359 169.676 50.8359ZM174.926 40.9375C174.926 41.4753 174.776 41.9036 174.475 42.2227C174.174 42.5326 173.81 42.7741 173.381 42.9473L174.516 44.9434C174.644 45.1712 174.84 45.3581 175.104 45.5039C175.368 45.6406 175.5 45.8639 175.5 46.1738C175.5 46.429 175.427 46.6387 175.282 46.8027C175.145 46.9577 174.944 47.0352 174.68 47.0352H171.549C171.039 47.0352 170.784 46.7891 170.784 46.2969C170.784 46.0964 170.847 45.9186 170.975 45.7637C171.121 45.7181 171.194 45.6361 171.194 45.5176C171.194 45.4264 171.112 45.1986 170.948 44.834C170.784 44.4694 170.624 44.1367 170.469 43.8359C170.405 43.8451 170.337 43.8496 170.264 43.8496C170.018 43.8496 169.776 43.8314 169.539 43.7949C169.302 43.7493 169.066 43.6901 168.829 43.6172V44.834C168.829 45.1074 168.892 45.2943 169.02 45.3945C169.148 45.4857 169.275 45.5814 169.403 45.6816C169.539 45.7819 169.608 45.987 169.608 46.2969C169.608 46.7891 169.339 47.0352 168.801 47.0352H165.288C164.741 47.0352 164.467 46.7891 164.467 46.2969C164.467 46.0052 164.554 45.8001 164.727 45.6816C164.9 45.554 165.069 45.4401 165.233 45.3398C165.406 45.2396 165.493 45.071 165.493 44.834V39.7891C165.493 39.5339 165.406 39.3607 165.233 39.2695C165.069 39.1784 164.9 39.0781 164.727 38.9688C164.554 38.8594 164.467 38.6452 164.467 38.3262C164.467 37.834 164.741 37.5879 165.288 37.5879H169.772C170.301 37.5879 170.861 37.638 171.454 37.7383C172.055 37.8385 172.616 38.0163 173.135 38.2715C173.664 38.5176 174.092 38.8594 174.42 39.2969C174.758 39.7253 174.926 40.2721 174.926 40.9375ZM168.829 39.2969V42.1133C168.983 42.1497 169.138 42.1725 169.293 42.1816C169.457 42.1908 169.626 42.1953 169.799 42.1953C170.237 42.1953 170.629 42.1133 170.975 41.9492C171.33 41.776 171.508 41.4297 171.508 40.9102C171.508 40.3724 171.335 39.9714 170.989 39.707C170.651 39.4336 170.228 39.2969 169.717 39.2969H168.829Z" fill="#2C2825"/>
<path d="M460.614 46.154C459.895 46.154 459.219 46.0233 458.584 45.762C457.959 45.5007 457.413 45.1413 456.946 44.684C456.479 44.2173 456.111 43.676 455.84 43.06C455.579 42.4347 455.448 41.7627 455.448 41.044C455.448 40.3253 455.583 39.658 455.854 39.042C456.125 38.426 456.498 37.8893 456.974 37.432C457.459 36.9653 458.024 36.606 458.668 36.354C459.312 36.0927 460.003 35.962 460.74 35.962C461.589 35.962 462.359 36.116 463.05 36.424C463.75 36.732 464.329 37.1567 464.786 37.698L463.288 39.196C462.971 38.7853 462.597 38.4773 462.168 38.272C461.739 38.0667 461.253 37.964 460.712 37.964C460.133 37.964 459.615 38.0947 459.158 38.356C458.701 38.608 458.341 38.9673 458.08 39.434C457.828 39.8913 457.702 40.428 457.702 41.044C457.702 41.66 457.828 42.2013 458.08 42.668C458.332 43.1347 458.677 43.4987 459.116 43.76C459.555 44.0213 460.059 44.152 460.628 44.152C461.207 44.152 461.697 44.0447 462.098 43.83C462.509 43.606 462.821 43.2887 463.036 42.878C463.26 42.458 463.372 41.9493 463.372 41.352L464.828 42.332L460.418 42.262V40.4H465.612V40.722C465.612 41.9073 465.397 42.906 464.968 43.718C464.548 44.5207 463.96 45.1273 463.204 45.538C462.457 45.9487 461.594 46.154 460.614 46.154ZM466.058 46L469.978 36.116H471.966L475.844 46H473.52L470.552 37.796H471.35L468.34 46H466.058ZM468.284 44.208V42.416H473.674V44.208H468.284ZM477.17 46V36.116H479.368V46H477.17ZM478.864 46V44.068H483.75V46H478.864ZM485.298 46V36.116H487.496V46H485.298ZM486.992 46V44.068H491.878V46H486.992ZM493.426 46V36.116H495.624V46H493.426ZM495.106 46V44.096H500.524V46H495.106ZM495.106 41.87V40.036H500.034V41.87H495.106ZM495.106 38.006V36.116H500.454V38.006H495.106ZM503.999 41.926V40.302H506.085C506.523 40.302 506.859 40.19 507.093 39.966C507.335 39.742 507.457 39.4387 507.457 39.056C507.457 38.7013 507.34 38.4073 507.107 38.174C506.873 37.9407 506.537 37.824 506.099 37.824H503.999V36.116H506.351C507.004 36.116 507.578 36.242 508.073 36.494C508.567 36.7367 508.955 37.0773 509.235 37.516C509.515 37.9547 509.655 38.4587 509.655 39.028C509.655 39.6067 509.515 40.1153 509.235 40.554C508.955 40.9833 508.563 41.3193 508.059 41.562C507.555 41.8047 506.962 41.926 506.281 41.926H503.999ZM502.319 46V36.116H504.517V46H502.319ZM507.695 46L504.615 41.744L506.631 41.198L510.299 46H507.695ZM514.1 42.318L510.292 36.116H512.84L515.766 41.128H514.128L517.054 36.116H519.546L515.71 42.318H514.1ZM513.834 46V41.31H516.032V46H513.834Z" fill="#2C2825"/>
<path d="M560.21 46L564.13 36.116H566.118L569.996 46H567.672L564.704 37.796H565.502L562.492 46H560.21ZM562.436 44.208V42.416H567.826V44.208H562.436ZM573.002 46V44.292H575.326C575.755 44.292 576.091 44.166 576.334 43.914C576.577 43.662 576.698 43.354 576.698 42.99C576.698 42.738 576.642 42.514 576.53 42.318C576.418 42.122 576.259 41.968 576.054 41.856C575.858 41.744 575.615 41.688 575.326 41.688H573.002V40.022H575.144C575.508 40.022 575.802 39.9333 576.026 39.756C576.25 39.5693 576.362 39.2893 576.362 38.916C576.362 38.552 576.25 38.2813 576.026 38.104C575.802 37.9173 575.508 37.824 575.144 37.824H573.002V36.116H575.564C576.199 36.116 576.735 36.2327 577.174 36.466C577.622 36.6993 577.963 37.012 578.196 37.404C578.429 37.796 578.546 38.23 578.546 38.706C578.546 39.3127 578.35 39.826 577.958 40.246C577.566 40.666 576.987 40.9553 576.222 41.114L576.278 40.372C577.109 40.5307 577.748 40.8527 578.196 41.338C578.653 41.8233 578.882 42.4207 578.882 43.13C578.882 43.6713 578.747 44.1613 578.476 44.6C578.215 45.0293 577.832 45.37 577.328 45.622C576.833 45.874 576.236 46 575.536 46H573.002ZM571.322 46V36.116H573.492V46H571.322ZM585.289 46.168C584.542 46.168 583.851 46.0373 583.217 45.776C582.591 45.5147 582.041 45.1507 581.565 44.684C581.089 44.2173 580.72 43.676 580.459 43.06C580.197 42.4347 580.067 41.7627 580.067 41.044C580.067 40.316 580.197 39.644 580.459 39.028C580.72 38.412 581.084 37.8753 581.551 37.418C582.017 36.9513 582.563 36.592 583.189 36.34C583.823 36.0787 584.514 35.948 585.261 35.948C585.998 35.948 586.679 36.0787 587.305 36.34C587.939 36.592 588.49 36.9513 588.957 37.418C589.433 37.8753 589.801 38.4167 590.063 39.042C590.324 39.658 590.455 40.33 590.455 41.058C590.455 41.7767 590.324 42.4487 590.063 43.074C589.801 43.69 589.437 44.2313 588.971 44.698C588.504 45.1553 587.953 45.5147 587.319 45.776C586.693 46.0373 586.017 46.168 585.289 46.168ZM585.261 44.166C585.849 44.166 586.362 44.0353 586.801 43.774C587.249 43.5127 587.594 43.1487 587.837 42.682C588.079 42.206 588.201 41.66 588.201 41.044C588.201 40.5773 588.131 40.1573 587.991 39.784C587.851 39.4013 587.65 39.0747 587.389 38.804C587.127 38.524 586.815 38.314 586.451 38.174C586.096 38.0247 585.699 37.95 585.261 37.95C584.673 37.95 584.155 38.0807 583.707 38.342C583.268 38.594 582.927 38.9533 582.685 39.42C582.442 39.8773 582.321 40.4187 582.321 41.044C582.321 41.5107 582.391 41.9353 582.531 42.318C582.671 42.7007 582.867 43.032 583.119 43.312C583.38 43.5827 583.693 43.7927 584.057 43.942C584.421 44.0913 584.822 44.166 585.261 44.166ZM596.106 46.154C595.294 46.154 594.575 45.9813 593.95 45.636C593.334 45.2907 592.849 44.8147 592.494 44.208C592.149 43.592 591.976 42.892 591.976 42.108V36.116H594.188V42.234C594.188 42.626 594.272 42.9667 594.44 43.256C594.608 43.5453 594.837 43.7693 595.126 43.928C595.425 44.0773 595.751 44.152 596.106 44.152C596.479 44.152 596.806 44.0773 597.086 43.928C597.366 43.7693 597.585 43.55 597.744 43.27C597.912 42.9807 597.996 42.64 597.996 42.248V36.116H600.208V42.122C600.208 42.906 600.035 43.6013 599.69 44.208C599.345 44.8147 598.864 45.2907 598.248 45.636C597.632 45.9813 596.918 46.154 596.106 46.154ZM604.607 46V36.256H606.805V46H604.607ZM601.513 38.034V36.116H609.899V38.034H601.513Z" fill="#2C2825"/>
<path d="M656.642 46.154C655.905 46.154 655.219 46.028 654.584 45.776C653.959 45.5147 653.408 45.1507 652.932 44.684C652.465 44.2173 652.101 43.676 651.84 43.06C651.579 42.4347 651.448 41.7627 651.448 41.044C651.448 40.3253 651.579 39.658 651.84 39.042C652.101 38.4167 652.465 37.8753 652.932 37.418C653.399 36.9607 653.945 36.606 654.57 36.354C655.205 36.0927 655.891 35.962 656.628 35.962C657.412 35.962 658.107 36.088 658.714 36.34C659.33 36.592 659.867 36.9373 660.324 37.376L658.854 38.86C658.593 38.58 658.275 38.3607 657.902 38.202C657.538 38.0433 657.113 37.964 656.628 37.964C656.199 37.964 655.802 38.0387 655.438 38.188C655.083 38.328 654.775 38.5333 654.514 38.804C654.262 39.0747 654.061 39.4013 653.912 39.784C653.772 40.1667 653.702 40.5867 653.702 41.044C653.702 41.5107 653.772 41.9353 653.912 42.318C654.061 42.7007 654.262 43.0273 654.514 43.298C654.775 43.5687 655.083 43.7787 655.438 43.928C655.802 44.0773 656.199 44.152 656.628 44.152C657.132 44.152 657.571 44.0727 657.944 43.914C658.317 43.7553 658.639 43.536 658.91 43.256L660.394 44.74C659.918 45.1787 659.372 45.524 658.756 45.776C658.149 46.028 657.445 46.154 656.642 46.154ZM666.206 46.168C665.459 46.168 664.769 46.0373 664.134 45.776C663.509 45.5147 662.958 45.1507 662.482 44.684C662.006 44.2173 661.637 43.676 661.376 43.06C661.115 42.4347 660.984 41.7627 660.984 41.044C660.984 40.316 661.115 39.644 661.376 39.028C661.637 38.412 662.001 37.8753 662.468 37.418C662.935 36.9513 663.481 36.592 664.106 36.34C664.741 36.0787 665.431 35.948 666.178 35.948C666.915 35.948 667.597 36.0787 668.222 36.34C668.857 36.592 669.407 36.9513 669.874 37.418C670.35 37.8753 670.719 38.4167 670.98 39.042C671.241 39.658 671.372 40.33 671.372 41.058C671.372 41.7767 671.241 42.4487 670.98 43.074C670.719 43.69 670.355 44.2313 669.888 44.698C669.421 45.1553 668.871 45.5147 668.236 45.776C667.611 46.0373 666.934 46.168 666.206 46.168ZM666.178 44.166C666.766 44.166 667.279 44.0353 667.718 43.774C668.166 43.5127 668.511 43.1487 668.754 42.682C668.997 42.206 669.118 41.66 669.118 41.044C669.118 40.5773 669.048 40.1573 668.908 39.784C668.768 39.4013 668.567 39.0747 668.306 38.804C668.045 38.524 667.732 38.314 667.368 38.174C667.013 38.0247 666.617 37.95 666.178 37.95C665.59 37.95 665.072 38.0807 664.624 38.342C664.185 38.594 663.845 38.9533 663.602 39.42C663.359 39.8773 663.238 40.4187 663.238 41.044C663.238 41.5107 663.308 41.9353 663.448 42.318C663.588 42.7007 663.784 43.032 664.036 43.312C664.297 43.5827 664.61 43.7927 664.974 43.942C665.338 44.0913 665.739 44.166 666.178 44.166ZM673.047 46V36.116H674.587L675.245 38.09V46H673.047ZM679.865 46L674.041 38.538L674.587 36.116L680.411 43.578L679.865 46ZM679.865 46L679.277 44.026V36.116H681.475V46H679.865ZM686.085 46V36.256H688.283V46H686.085ZM682.991 38.034V36.116H691.377V38.034H682.991ZM690.926 46L694.846 36.116H696.834L700.712 46H698.388L695.42 37.796H696.218L693.208 46H690.926ZM693.152 44.208V42.416H698.542V44.208H693.152ZM706.194 46.154C705.457 46.154 704.771 46.028 704.136 45.776C703.511 45.5147 702.96 45.1507 702.484 44.684C702.018 44.2173 701.654 43.676 701.392 43.06C701.131 42.4347 701 41.7627 701 41.044C701 40.3253 701.131 39.658 701.392 39.042C701.654 38.4167 702.018 37.8753 702.484 37.418C702.951 36.9607 703.497 36.606 704.122 36.354C704.757 36.0927 705.443 35.962 706.18 35.962C706.964 35.962 707.66 36.088 708.266 36.34C708.882 36.592 709.419 36.9373 709.876 37.376L708.406 38.86C708.145 38.58 707.828 38.3607 707.454 38.202C707.09 38.0433 706.666 37.964 706.18 37.964C705.751 37.964 705.354 38.0387 704.99 38.188C704.636 38.328 704.328 38.5333 704.066 38.804C703.814 39.0747 703.614 39.4013 703.464 39.784C703.324 40.1667 703.254 40.5867 703.254 41.044C703.254 41.5107 703.324 41.9353 703.464 42.318C703.614 42.7007 703.814 43.0273 704.066 43.298C704.328 43.5687 704.636 43.7787 704.99 43.928C705.354 44.0773 705.751 44.152 706.18 44.152C706.684 44.152 707.123 44.0727 707.496 43.914C707.87 43.7553 708.192 43.536 708.462 43.256L709.946 44.74C709.47 45.1787 708.924 45.524 708.308 45.776C707.702 46.028 706.997 46.154 706.194 46.154ZM713.695 46V36.256H715.893V46H713.695ZM710.601 38.034V36.116H718.987V38.034H710.601Z" fill="#2C2825"/>
<a href="mailto: hello@figma.com">
<rect fill="black" fill-opacity="0" y="1.18" width="68.2666" height="17.64"/>
</a>
</svg>
