<svg width="1200" height="83" viewBox="0 0 1200 83" fill="none" xmlns="http://www.w3.org/2000/svg">
<path d="M0 0H1200V82H0V0Z" fill="white"/>
<path d="M1200 82V81.5H0V82V82.5H1200V82Z" fill="#595959"/>
<path d="M11.6895 30.126C13.7793 30.126 15.6201 30.5654 17.2119 31.4443C18.8135 32.3135 20.0635 33.5391 20.9619 35.1211C21.8701 36.6934 22.3242 38.5342 22.3242 40.6436C22.3242 42.7822 21.8896 44.6768 21.0205 46.3271C20.1514 47.9678 18.9209 49.2568 17.3291 50.1943C15.7471 51.1221 13.8672 51.5859 11.6895 51.5859C9.48242 51.5859 7.58301 51.1367 5.99121 50.2383C4.39941 49.3301 3.17383 48.0605 2.31445 46.4297C1.45508 44.7988 1.02539 42.8945 1.02539 40.7168C1.02539 38.627 1.47949 36.7861 2.3877 35.1943C3.30566 33.6025 4.56543 32.3623 6.16699 31.4736C7.76855 30.5752 9.60938 30.126 11.6895 30.126ZM14.9121 45.1699C14.9121 43.627 14.7607 42.1279 14.458 40.6729C14.3799 40.3018 14.2529 39.8086 14.0771 39.1934C13.9014 38.5781 13.6768 37.9287 13.4033 37.2451C13.1396 36.5615 12.832 35.9121 12.4805 35.2969C12.1387 34.6816 11.7578 34.1836 11.3379 33.8027C10.9277 33.4121 10.4883 33.2168 10.0195 33.2168C9.52148 33.2168 9.16504 33.4219 8.9502 33.832C8.74512 34.2422 8.61816 34.7109 8.56934 35.2383C8.53027 35.7559 8.51074 36.1904 8.51074 36.542C8.51074 37.7529 8.6084 38.9639 8.80371 40.1748C9.00879 41.376 9.32129 42.5479 9.74121 43.6904C9.8584 44.0225 10.0342 44.4521 10.2686 44.9795C10.5127 45.5068 10.8008 46.0342 11.1328 46.5615C11.4648 47.0889 11.8213 47.5332 12.2021 47.8945C12.5928 48.2559 12.9932 48.4365 13.4033 48.4365C13.9014 48.4365 14.2529 48.2363 14.458 47.8359C14.6729 47.4355 14.7998 46.9766 14.8389 46.459C14.8877 45.9414 14.9121 45.5117 14.9121 45.1699ZM28.5287 51.4248C27.601 51.4248 26.8246 51.1904 26.1996 50.7217C25.5844 50.2432 25.1254 49.623 24.8227 48.8613C24.5199 48.0996 24.3686 47.2988 24.3686 46.459V41.4785C24.3686 41.1172 24.3393 40.8633 24.2807 40.7168C24.2221 40.5605 24.0561 40.3604 23.7826 40.1162C23.5678 39.9209 23.3627 39.7402 23.1674 39.5742C22.9818 39.3984 22.8891 39.1445 22.8891 38.8125C22.8891 38.4316 23.0111 38.1338 23.2553 37.9189C23.5092 37.6943 23.7973 37.5186 24.1195 37.3916L27.3422 36.1172C27.723 35.9609 28.1039 35.8242 28.4848 35.707C28.8754 35.5898 29.2807 35.5312 29.7006 35.5312C30.101 35.5312 30.4086 35.6729 30.6234 35.9561C30.8383 36.2295 30.9457 36.5518 30.9457 36.9229V44.877C30.9457 45.1504 30.975 45.4434 31.0336 45.7559C31.102 46.0684 31.2289 46.3369 31.4145 46.5615C31.6 46.7764 31.8686 46.8838 32.2201 46.8838C32.5814 46.8838 32.8988 46.8057 33.1723 46.6494C33.4457 46.4834 33.6947 46.2832 33.9193 46.0488V41.4785C33.9193 41.1074 33.8852 40.8389 33.8168 40.6729C33.7582 40.4971 33.5775 40.292 33.2748 40.0576C33.0502 39.8818 32.8549 39.7109 32.6889 39.5449C32.5229 39.3789 32.4398 39.1348 32.4398 38.8125C32.4398 38.4316 32.5619 38.1338 32.8061 37.9189C33.06 37.6943 33.348 37.5186 33.6703 37.3916L36.893 36.1172C37.2738 35.9609 37.6547 35.8242 38.0355 35.707C38.4262 35.5898 38.8314 35.5312 39.2514 35.5312C39.6518 35.5312 39.9594 35.668 40.1742 35.9414C40.3988 36.2148 40.5111 36.542 40.5111 36.9229V46.5908C40.5111 46.8643 40.5209 47.1377 40.5404 47.4111C40.5697 47.6748 40.682 47.9189 40.8773 48.1436C41.1215 48.4072 41.3363 48.627 41.5219 48.8027C41.7074 48.9785 41.8002 49.2666 41.8002 49.667C41.8002 50.1064 41.6684 50.4385 41.4047 50.6631C41.141 50.8877 40.7943 51 40.3646 51H37.0248C36.2826 51 35.6283 50.7217 35.0619 50.165C34.5053 49.6084 34.227 48.9639 34.227 48.2314C33.6898 48.749 33.1039 49.252 32.4691 49.7402C31.8344 50.2285 31.1801 50.6338 30.5063 50.9561C29.8422 51.2686 29.183 51.4248 28.5287 51.4248ZM50.5682 42.3135V46.5908C50.5682 47.1572 50.6316 47.5381 50.7586 47.7334C50.8953 47.9287 51.2469 48.085 51.8133 48.2021C52.3113 48.2998 52.7068 48.417 52.9998 48.5537C53.3025 48.6807 53.4539 49.0518 53.4539 49.667C53.4539 50.1064 53.3221 50.4385 53.0584 50.6631C52.7947 50.8877 52.448 51 52.0184 51H44.284C43.8641 51 43.5174 50.8877 43.2439 50.6631C42.9705 50.4385 42.8338 50.1064 42.8338 49.667C42.8338 49.3154 42.8973 49.0518 43.0242 48.876C43.1609 48.7002 43.3123 48.5439 43.4783 48.4072C43.6541 48.2607 43.8055 48.0752 43.9324 47.8506C44.0691 47.6162 44.1375 47.2646 44.1375 46.7959V41.4785C44.1375 41.0391 44.0594 40.7119 43.9031 40.4971C43.7566 40.2725 43.5857 40.0967 43.3904 39.9697C43.2049 39.8428 43.034 39.7012 42.8777 39.5449C42.7313 39.3789 42.658 39.1348 42.658 38.8125C42.658 38.4316 42.7801 38.1338 43.0242 37.9189C43.2781 37.6943 43.5662 37.5186 43.8885 37.3916L47.5506 35.9414C47.785 35.8438 48.0242 35.751 48.2684 35.6631C48.5125 35.5752 48.7664 35.5312 49.0301 35.5312C49.3719 35.5312 49.6258 35.6631 49.7918 35.9268C49.9578 36.1807 50.0701 36.4785 50.1287 36.8203C50.1971 37.1523 50.2459 37.4453 50.2752 37.6992C50.3045 37.875 50.3338 38.0508 50.3631 38.2266C50.3924 38.4023 50.4168 38.5781 50.4363 38.7539C50.7391 37.8555 51.2029 37.0938 51.8279 36.4688C52.4627 35.8438 53.3367 35.5312 54.45 35.5312C55.241 35.5312 55.8611 35.7266 56.3104 36.1172C56.7693 36.5078 57.0965 37.0107 57.2918 37.626C57.4871 38.2314 57.5848 38.876 57.5848 39.5596C57.5848 40.1943 57.5018 40.8096 57.3357 41.4053C57.1697 41.9912 56.8768 42.4746 56.4568 42.8555C56.0467 43.2363 55.4656 43.4268 54.7137 43.4268C53.8934 43.4268 53.2928 43.2998 52.9119 43.0459C52.5408 42.792 52.3016 42.4795 52.1941 42.1084C52.0867 41.7373 52.0281 41.3662 52.0184 40.9951C52.0184 40.624 51.9891 40.3115 51.9305 40.0576C51.8719 39.8037 51.6961 39.6768 51.4031 39.6768C51.1395 39.6768 50.949 39.8623 50.8318 40.2334C50.7146 40.5947 50.6414 40.9854 50.6121 41.4053C50.5828 41.8252 50.5682 42.1279 50.5682 42.3135ZM84.9645 46.1367C84.9645 47.1328 84.7447 47.9482 84.3053 48.583C83.8658 49.2178 83.2848 49.7109 82.5621 50.0625C81.8492 50.4141 81.0729 50.6582 80.233 50.7949C79.3932 50.9316 78.568 51 77.7574 51H66.273C65.7457 51 65.3209 50.873 64.9986 50.6191C64.6861 50.3652 64.5299 49.96 64.5299 49.4033C64.5299 48.915 64.6275 48.5488 64.8229 48.3047C65.0279 48.0508 65.2623 47.8457 65.526 47.6895C65.7896 47.5332 66.0191 47.3525 66.2145 47.1475C66.4195 46.9326 66.5221 46.6201 66.5221 46.21V35.5166C66.5221 35.0869 66.4195 34.7695 66.2145 34.5645C66.0191 34.3594 65.7896 34.1836 65.526 34.0371C65.2623 33.8809 65.0279 33.6807 64.8229 33.4365C64.6275 33.1924 64.5299 32.8213 64.5299 32.3232C64.5299 31.7666 64.6861 31.3613 64.9986 31.1074C65.3209 30.8535 65.7457 30.7266 66.273 30.7266H75.2232C76.1803 30.7266 77.1617 30.8291 78.1676 31.0342C79.1832 31.2393 80.1207 31.5762 80.9801 32.0449C81.8395 32.5137 82.5328 33.1387 83.0602 33.9199C83.5973 34.7012 83.8658 35.668 83.8658 36.8203C83.8658 38.0801 83.4801 39.0713 82.7086 39.7939C81.9469 40.5068 81.0387 41.0195 79.984 41.332C80.8336 41.5176 81.6344 41.8105 82.3863 42.2109C83.148 42.6016 83.7682 43.1191 84.2467 43.7637C84.7252 44.4082 84.9645 45.1992 84.9645 46.1367ZM73.817 33.6709H73.7291V40.6582H74.2564C75.36 40.6582 76.1168 40.3408 76.527 39.7061C76.9469 39.0713 77.1568 38.251 77.1568 37.2451C77.1568 36.1514 76.8834 35.2822 76.3365 34.6377C75.7896 33.9932 74.9498 33.6709 73.817 33.6709ZM77.9039 45.8291C77.9039 45.0479 77.6744 44.4033 77.2154 43.8955C76.7662 43.3779 76.1363 43.1191 75.3258 43.1191H73.7291V45.624C73.7291 46.3662 73.9098 46.9619 74.2711 47.4111C74.6324 47.8506 75.1988 48.0703 75.9703 48.0703C76.6832 48.0703 77.1813 47.8604 77.4645 47.4404C77.7574 47.0205 77.9039 46.4834 77.9039 45.8291ZM91.9453 28.9688C92.3457 28.9688 92.6533 29.1055 92.8682 29.3789C93.0928 29.6523 93.2051 29.9795 93.2051 30.3604V46.5908C93.2051 46.874 93.2197 47.1523 93.249 47.4258C93.2783 47.6895 93.4004 47.9287 93.6152 48.1436C93.8789 48.4072 94.1035 48.6221 94.2891 48.7881C94.4844 48.9443 94.582 49.2373 94.582 49.667C94.582 50.1064 94.4453 50.4385 94.1719 50.6631C93.8984 50.8877 93.5518 51 93.1318 51H86.6865C86.2666 51 85.9199 50.8877 85.6465 50.6631C85.373 50.4385 85.2363 50.1064 85.2363 49.667C85.2363 49.2959 85.3047 49.0273 85.4414 48.8613C85.5781 48.6855 85.7393 48.5342 85.9248 48.4072C86.1104 48.2803 86.2715 48.1045 86.4082 47.8799C86.5449 47.6455 86.6133 47.2793 86.6133 46.7812V34.9014C86.6133 34.4326 86.5352 34.0908 86.3789 33.876C86.2227 33.6611 86.0371 33.5 85.8223 33.3926C85.6172 33.2754 85.4365 33.1436 85.2803 32.9971C85.124 32.8408 85.0459 32.5918 85.0459 32.25C85.0459 31.8594 85.1729 31.5566 85.4268 31.3418C85.6807 31.127 85.9688 30.9561 86.291 30.8291L89.5576 29.5547C89.9482 29.3984 90.3389 29.2617 90.7295 29.1445C91.1201 29.0273 91.5254 28.9688 91.9453 28.9688ZM103.496 35.5312C105.108 35.5312 106.519 35.8633 107.73 36.5273C108.951 37.1914 109.903 38.124 110.586 39.3252C111.27 40.5264 111.612 41.9375 111.612 43.5586C111.612 45.1504 111.236 46.5371 110.484 47.7188C109.732 48.8906 108.721 49.8037 107.452 50.458C106.192 51.1025 104.79 51.4248 103.247 51.4248C101.626 51.4248 100.205 51.0928 98.9848 50.4287C97.7641 49.7549 96.8119 48.8125 96.1283 47.6016C95.4545 46.3809 95.1176 44.96 95.1176 43.3389C95.1176 41.7568 95.4984 40.3799 96.2602 39.208C97.0219 38.0361 98.0375 37.1328 99.307 36.498C100.577 35.8535 101.973 35.5312 103.496 35.5312ZM104.331 48.1875C104.576 48.1875 104.746 48.0605 104.844 47.8066C104.952 47.5527 105.02 47.2744 105.049 46.9717C105.079 46.6592 105.093 46.4199 105.093 46.2539C105.093 45.6973 105.049 45.1455 104.961 44.5986C104.873 44.042 104.761 43.4951 104.624 42.958C104.576 42.7432 104.483 42.4111 104.346 41.9619C104.209 41.5029 104.043 41.0244 103.848 40.5264C103.653 40.0283 103.438 39.6035 103.204 39.252C102.969 38.9004 102.72 38.7246 102.456 38.7246C102.232 38.7246 102.066 38.8516 101.958 39.1055C101.861 39.3594 101.797 39.6426 101.768 39.9551C101.739 40.2578 101.724 40.4873 101.724 40.6436C101.724 40.9072 101.763 41.332 101.841 41.918C101.919 42.4941 102.032 43.1387 102.178 43.8516C102.334 44.5645 102.52 45.2529 102.735 45.917C102.95 46.5713 103.189 47.1133 103.453 47.543C103.726 47.9727 104.019 48.1875 104.331 48.1875ZM120.673 35.5312C122.284 35.5312 123.695 35.8633 124.906 36.5273C126.127 37.1914 127.079 38.124 127.762 39.3252C128.446 40.5264 128.788 41.9375 128.788 43.5586C128.788 45.1504 128.412 46.5371 127.66 47.7188C126.908 48.8906 125.897 49.8037 124.628 50.458C123.368 51.1025 121.967 51.4248 120.424 51.4248C118.803 51.4248 117.382 51.0928 116.161 50.4287C114.94 49.7549 113.988 48.8125 113.304 47.6016C112.631 46.3809 112.294 44.96 112.294 43.3389C112.294 41.7568 112.675 40.3799 113.436 39.208C114.198 38.0361 115.214 37.1328 116.483 36.498C117.753 35.8535 119.149 35.5312 120.673 35.5312ZM121.508 48.1875C121.752 48.1875 121.923 48.0605 122.02 47.8066C122.128 47.5527 122.196 47.2744 122.225 46.9717C122.255 46.6592 122.269 46.4199 122.269 46.2539C122.269 45.6973 122.225 45.1455 122.137 44.5986C122.05 44.042 121.937 43.4951 121.801 42.958C121.752 42.7432 121.659 42.4111 121.522 41.9619C121.386 41.5029 121.22 41.0244 121.024 40.5264C120.829 40.0283 120.614 39.6035 120.38 39.252C120.145 38.9004 119.896 38.7246 119.633 38.7246C119.408 38.7246 119.242 38.8516 119.135 39.1055C119.037 39.3594 118.973 39.6426 118.944 39.9551C118.915 40.2578 118.9 40.4873 118.9 40.6436C118.9 40.9072 118.939 41.332 119.017 41.918C119.096 42.4941 119.208 43.1387 119.354 43.8516C119.511 44.5645 119.696 45.2529 119.911 45.917C120.126 46.5713 120.365 47.1133 120.629 47.543C120.902 47.9727 121.195 48.1875 121.508 48.1875ZM136.032 35.5312C136.433 35.5312 136.736 35.6729 136.941 35.9561C137.155 36.2295 137.263 36.5518 137.263 36.9229V38.4023C138.025 37.6797 138.864 37.0205 139.782 36.4248C140.71 35.8291 141.613 35.5312 142.492 35.5312C143.537 35.5312 144.372 35.834 144.997 36.4395C145.622 37.0449 146.057 37.7822 146.301 38.6514C146.819 38.1436 147.375 37.6504 147.971 37.1719C148.567 36.6934 149.187 36.3027 149.831 36C150.476 35.6875 151.13 35.5312 151.794 35.5312C152.722 35.5312 153.484 35.7754 154.079 36.2637C154.685 36.7422 155.129 37.3623 155.412 38.124C155.705 38.876 155.852 39.667 155.852 40.4971V46.5908C155.852 46.8154 155.866 47.0986 155.896 47.4404C155.925 47.7725 156.032 48.0166 156.218 48.1729V48.1875C156.433 48.4121 156.623 48.6318 156.789 48.8467C156.955 49.0518 157.038 49.3252 157.038 49.667C157.038 50.0967 156.906 50.4287 156.643 50.6631C156.379 50.8877 156.037 51 155.617 51H149.597C149.196 51 148.884 50.8779 148.659 50.6338C148.435 50.3799 148.322 50.0576 148.322 49.667C148.322 49.3057 148.405 49.0273 148.571 48.832C148.747 48.6367 148.918 48.4219 149.084 48.1875C149.25 47.9434 149.333 47.5918 149.333 47.1328V42.0791C149.333 41.8057 149.304 41.5176 149.245 41.2148C149.187 40.9023 149.07 40.6338 148.894 40.4092C148.718 40.1846 148.454 40.0723 148.103 40.0723C147.78 40.0723 147.492 40.1602 147.238 40.3359C146.994 40.5117 146.765 40.707 146.55 40.9219V47.001C146.55 47.5186 146.633 47.9043 146.799 48.1582C146.965 48.4121 147.131 48.6367 147.297 48.832C147.463 49.0273 147.546 49.3057 147.546 49.667C147.546 50.0674 147.434 50.3896 147.209 50.6338C146.994 50.8779 146.682 51 146.272 51H140.295C139.885 51 139.572 50.8779 139.358 50.6338C139.143 50.3799 139.035 50.0576 139.035 49.667C139.035 49.3057 139.118 49.0273 139.284 48.832C139.45 48.627 139.616 48.4072 139.782 48.1729C139.948 47.9385 140.031 47.5918 140.031 47.1328V42.0791C140.031 41.8057 140.002 41.5176 139.944 41.2148C139.885 40.9023 139.768 40.6338 139.592 40.4092C139.416 40.1846 139.153 40.0723 138.801 40.0723C138.488 40.0723 138.205 40.1602 137.951 40.3359C137.697 40.502 137.468 40.6973 137.263 40.9219V47.001C137.263 47.5283 137.346 47.9189 137.512 48.1729C137.678 48.4268 137.844 48.6514 138.01 48.8467C138.176 49.0322 138.259 49.3057 138.259 49.667C138.259 50.0576 138.152 50.3799 137.937 50.6338C137.722 50.8779 137.409 51 136.999 51H130.979C130.559 51 130.217 50.8877 129.953 50.6631C129.69 50.4287 129.558 50.0967 129.558 49.667C129.558 49.2373 129.655 48.9199 129.851 48.7148C130.056 48.5098 130.256 48.29 130.451 48.0557C130.647 47.8115 130.744 47.4307 130.744 46.9131V41.4785C130.744 41.0391 130.676 40.7119 130.539 40.4971C130.403 40.2725 130.246 40.0967 130.071 39.9697C129.895 39.8428 129.738 39.7012 129.602 39.5449C129.465 39.3789 129.397 39.1348 129.397 38.8125C129.397 38.4121 129.514 38.1094 129.748 37.9043C129.992 37.6992 130.28 37.5283 130.613 37.3916L133.703 36.1172C134.074 35.9609 134.45 35.8242 134.831 35.707C135.222 35.5898 135.622 35.5312 136.032 35.5312ZM164.195 38.0361C163.863 38.0361 163.565 38.1094 163.301 38.2559C163.038 38.4023 162.906 38.666 162.906 39.0469C162.906 39.3594 162.979 39.5986 163.126 39.7646C163.272 39.9307 163.482 40.0723 163.755 40.1895C164.048 40.3164 164.356 40.4092 164.678 40.4678C165.001 40.5264 165.313 40.5898 165.616 40.6582C166.514 40.8535 167.354 41.1855 168.135 41.6543C168.917 42.1133 169.546 42.709 170.025 43.4414C170.513 44.1641 170.757 45.0234 170.757 46.0195C170.757 47.3574 170.455 48.4219 169.849 49.2129C169.244 50.0039 168.438 50.5703 167.432 50.9121C166.436 51.2539 165.342 51.4248 164.151 51.4248C163.848 51.4248 163.428 51.3857 162.891 51.3076C162.364 51.2295 161.973 51.1221 161.719 50.9854H161.705C161.607 50.9365 161.446 50.8828 161.221 50.8242C160.997 50.7656 160.831 50.7363 160.723 50.7363C160.421 50.7363 160.162 50.8535 159.947 51.0879C159.732 51.332 159.468 51.4541 159.156 51.4541C158.736 51.4541 158.404 51.3174 158.16 51.0439C157.925 50.7705 157.745 50.4482 157.618 50.0771C157.501 49.6963 157.393 49.3447 157.296 49.0225C157.227 48.749 157.149 48.4805 157.061 48.2168C156.973 47.9434 156.929 47.665 156.929 47.3818C156.929 46.874 157.066 46.4639 157.339 46.1514C157.613 45.8389 158.008 45.6826 158.526 45.6826C159.034 45.6826 159.454 45.7949 159.786 46.0195C160.118 46.2344 160.411 46.5029 160.665 46.8252C160.928 47.1475 161.192 47.4746 161.456 47.8066C161.729 48.1289 162.056 48.4023 162.437 48.627C162.818 48.8418 163.296 48.9492 163.873 48.9492C164.273 48.9492 164.576 48.832 164.781 48.5977C164.986 48.3535 165.088 48.041 165.088 47.6602C165.088 47.1133 164.942 46.7617 164.649 46.6055C164.356 46.4492 163.98 46.3271 163.521 46.2393C162.681 46.0732 161.88 45.8779 161.119 45.6533C160.367 45.4287 159.698 45.1211 159.112 44.7305C158.536 44.3398 158.077 43.8223 157.735 43.1777C157.403 42.5332 157.237 41.7031 157.237 40.6875C157.237 39.4863 157.564 38.5098 158.218 37.7578C158.873 36.9961 159.703 36.4346 160.709 36.0732C161.724 35.7119 162.754 35.5312 163.799 35.5312C164.2 35.5312 164.59 35.5459 164.971 35.5752C165.362 35.6045 165.748 35.6826 166.129 35.8096C166.177 35.8193 166.29 35.8584 166.465 35.9268C166.651 35.9951 166.832 36.0635 167.007 36.1318C167.183 36.1904 167.271 36.2197 167.271 36.2197C167.593 36.2197 167.867 36.1074 168.091 35.8828C168.326 35.6484 168.604 35.5312 168.926 35.5312C169.337 35.5312 169.639 35.6924 169.835 36.0146C170.03 36.3271 170.167 36.6934 170.245 37.1133C170.333 37.5332 170.401 37.8896 170.45 38.1826C170.489 38.4072 170.528 38.6367 170.567 38.8711C170.606 39.0957 170.626 39.3203 170.626 39.5449C170.626 39.9355 170.533 40.3066 170.347 40.6582C170.171 41 169.854 41.1709 169.395 41.1709C168.936 41.1709 168.531 41.0146 168.179 40.7021C167.828 40.3799 167.476 40.0137 167.125 39.6035C166.773 39.1934 166.368 38.832 165.909 38.5195C165.45 38.1973 164.879 38.0361 164.195 38.0361ZM181.796 53.3877C180.165 53.3877 178.69 53.085 177.372 52.4795C176.054 51.8838 174.921 51.0586 173.974 50.0039C173.036 48.9395 172.313 47.7139 171.806 46.3271C171.308 44.9404 171.059 43.4609 171.059 41.8887C171.059 40.3066 171.308 38.832 171.806 37.4648C172.313 36.0977 173.041 34.9014 173.988 33.876C174.936 32.8408 176.068 32.0352 177.387 31.459C178.705 30.873 180.175 30.5801 181.796 30.5801C183.427 30.5801 184.901 30.8682 186.22 31.4443C187.538 32.0205 188.666 32.8262 189.604 33.8613C190.551 34.8965 191.273 36.0977 191.771 37.4648C192.279 38.832 192.533 40.3066 192.533 41.8887C192.533 43.4707 192.284 44.9551 191.786 46.3418C191.288 47.7285 190.57 48.9541 189.633 50.0186C188.695 51.0732 187.562 51.8984 186.234 52.4941C184.916 53.0898 183.437 53.3877 181.796 53.3877ZM181.796 50.8242C183.476 50.8242 184.931 50.4141 186.161 49.5938C187.401 48.7734 188.358 47.6846 189.032 46.3271C189.706 44.9697 190.043 43.4902 190.043 41.8887C190.043 40.2773 189.701 38.8125 189.018 37.4941C188.344 36.166 187.387 35.1113 186.146 34.3301C184.916 33.5391 183.466 33.1436 181.796 33.1436C180.116 33.1436 178.661 33.5342 177.431 34.3154C176.2 35.0967 175.253 36.1465 174.589 37.4648C173.925 38.7832 173.593 40.2578 173.593 41.8887C173.593 43.5098 173.92 44.999 174.574 46.3564C175.238 47.7041 176.181 48.7881 177.401 49.6084C178.632 50.4189 180.097 50.8242 181.796 50.8242ZM187.421 40.2188C187.421 40.7949 187.26 41.2539 186.938 41.5957C186.615 41.9277 186.225 42.1865 185.766 42.3721L186.981 44.5107C187.118 44.7549 187.328 44.9551 187.611 45.1113C187.895 45.2578 188.036 45.4971 188.036 45.8291C188.036 46.1025 187.958 46.3271 187.802 46.5029C187.655 46.6689 187.44 46.752 187.157 46.752H183.803C183.256 46.752 182.982 46.4883 182.982 45.9609C182.982 45.7461 183.051 45.5557 183.188 45.3896C183.344 45.3408 183.422 45.2529 183.422 45.126C183.422 45.0283 183.334 44.7842 183.158 44.3936C182.982 44.0029 182.812 43.6465 182.646 43.3242C182.577 43.334 182.504 43.3389 182.426 43.3389C182.162 43.3389 181.903 43.3193 181.649 43.2803C181.396 43.2314 181.142 43.168 180.888 43.0898V44.3936C180.888 44.6865 180.956 44.8867 181.093 44.9941C181.229 45.0918 181.366 45.1943 181.503 45.3018C181.649 45.4092 181.723 45.6289 181.723 45.9609C181.723 46.4883 181.435 46.752 180.858 46.752H177.094C176.508 46.752 176.215 46.4883 176.215 45.9609C176.215 45.6484 176.308 45.4287 176.493 45.3018C176.679 45.165 176.859 45.043 177.035 44.9355C177.221 44.8281 177.313 44.6475 177.313 44.3936V38.9883C177.313 38.7148 177.221 38.5293 177.035 38.4316C176.859 38.334 176.679 38.2266 176.493 38.1094C176.308 37.9922 176.215 37.7627 176.215 37.4209C176.215 36.8936 176.508 36.6299 177.094 36.6299H181.898C182.465 36.6299 183.065 36.6836 183.7 36.791C184.345 36.8984 184.945 37.0889 185.502 37.3623C186.068 37.626 186.527 37.9922 186.879 38.4609C187.24 38.9199 187.421 39.5059 187.421 40.2188ZM180.888 38.4609V41.4785C181.054 41.5176 181.22 41.542 181.386 41.5518C181.562 41.5615 181.742 41.5664 181.928 41.5664C182.396 41.5664 182.816 41.4785 183.188 41.3027C183.568 41.1172 183.759 40.7461 183.759 40.1895C183.759 39.6133 183.573 39.1836 183.202 38.9004C182.841 38.6074 182.387 38.4609 181.84 38.4609H180.888Z" fill="#2C2825"/>
<path d="M940.614 46.154C939.895 46.154 939.219 46.0233 938.584 45.762C937.959 45.5007 937.413 45.1413 936.946 44.684C936.479 44.2173 936.111 43.676 935.84 43.06C935.579 42.4347 935.448 41.7627 935.448 41.044C935.448 40.3253 935.583 39.658 935.854 39.042C936.125 38.426 936.498 37.8893 936.974 37.432C937.459 36.9653 938.024 36.606 938.668 36.354C939.312 36.0927 940.003 35.962 940.74 35.962C941.589 35.962 942.359 36.116 943.05 36.424C943.75 36.732 944.329 37.1567 944.786 37.698L943.288 39.196C942.971 38.7853 942.597 38.4773 942.168 38.272C941.739 38.0667 941.253 37.964 940.712 37.964C940.133 37.964 939.615 38.0947 939.158 38.356C938.701 38.608 938.341 38.9673 938.08 39.434C937.828 39.8913 937.702 40.428 937.702 41.044C937.702 41.66 937.828 42.2013 938.08 42.668C938.332 43.1347 938.677 43.4987 939.116 43.76C939.555 44.0213 940.059 44.152 940.628 44.152C941.207 44.152 941.697 44.0447 942.098 43.83C942.509 43.606 942.821 43.2887 943.036 42.878C943.26 42.458 943.372 41.9493 943.372 41.352L944.828 42.332L940.418 42.262V40.4H945.612V40.722C945.612 41.9073 945.397 42.906 944.968 43.718C944.548 44.5207 943.96 45.1273 943.204 45.538C942.457 45.9487 941.594 46.154 940.614 46.154ZM946.058 46L949.978 36.116H951.966L955.844 46H953.52L950.552 37.796H951.35L948.34 46H946.058ZM948.284 44.208V42.416H953.674V44.208H948.284ZM957.17 46V36.116H959.368V46H957.17ZM958.864 46V44.068H963.75V46H958.864ZM965.298 46V36.116H967.496V46H965.298ZM966.992 46V44.068H971.878V46H966.992ZM973.426 46V36.116H975.624V46H973.426ZM975.106 46V44.096H980.524V46H975.106ZM975.106 41.87V40.036H980.034V41.87H975.106ZM975.106 38.006V36.116H980.454V38.006H975.106ZM983.999 41.926V40.302H986.085C986.523 40.302 986.859 40.19 987.093 39.966C987.335 39.742 987.457 39.4387 987.457 39.056C987.457 38.7013 987.34 38.4073 987.107 38.174C986.873 37.9407 986.537 37.824 986.099 37.824H983.999V36.116H986.351C987.004 36.116 987.578 36.242 988.073 36.494C988.567 36.7367 988.955 37.0773 989.235 37.516C989.515 37.9547 989.655 38.4587 989.655 39.028C989.655 39.6067 989.515 40.1153 989.235 40.554C988.955 40.9833 988.563 41.3193 988.059 41.562C987.555 41.8047 986.962 41.926 986.281 41.926H983.999ZM982.319 46V36.116H984.517V46H982.319ZM987.695 46L984.615 41.744L986.631 41.198L990.299 46H987.695ZM994.1 42.318L990.292 36.116H992.84L995.766 41.128H994.128L997.054 36.116H999.546L995.71 42.318H994.1ZM993.834 46V41.31H996.032V46H993.834Z" fill="#2C2825"/>
<path d="M1040.21 46L1044.13 36.116H1046.12L1050 46H1047.67L1044.7 37.796H1045.5L1042.49 46H1040.21ZM1042.44 44.208V42.416H1047.83V44.208H1042.44ZM1053 46V44.292H1055.33C1055.76 44.292 1056.09 44.166 1056.33 43.914C1056.58 43.662 1056.7 43.354 1056.7 42.99C1056.7 42.738 1056.64 42.514 1056.53 42.318C1056.42 42.122 1056.26 41.968 1056.05 41.856C1055.86 41.744 1055.62 41.688 1055.33 41.688H1053V40.022H1055.14C1055.51 40.022 1055.8 39.9333 1056.03 39.756C1056.25 39.5693 1056.36 39.2893 1056.36 38.916C1056.36 38.552 1056.25 38.2813 1056.03 38.104C1055.8 37.9173 1055.51 37.824 1055.14 37.824H1053V36.116H1055.56C1056.2 36.116 1056.74 36.2327 1057.17 36.466C1057.62 36.6993 1057.96 37.012 1058.2 37.404C1058.43 37.796 1058.55 38.23 1058.55 38.706C1058.55 39.3127 1058.35 39.826 1057.96 40.246C1057.57 40.666 1056.99 40.9553 1056.22 41.114L1056.28 40.372C1057.11 40.5307 1057.75 40.8527 1058.2 41.338C1058.65 41.8233 1058.88 42.4207 1058.88 43.13C1058.88 43.6713 1058.75 44.1613 1058.48 44.6C1058.21 45.0293 1057.83 45.37 1057.33 45.622C1056.83 45.874 1056.24 46 1055.54 46H1053ZM1051.32 46V36.116H1053.49V46H1051.32ZM1065.29 46.168C1064.54 46.168 1063.85 46.0373 1063.22 45.776C1062.59 45.5147 1062.04 45.1507 1061.56 44.684C1061.09 44.2173 1060.72 43.676 1060.46 43.06C1060.2 42.4347 1060.07 41.7627 1060.07 41.044C1060.07 40.316 1060.2 39.644 1060.46 39.028C1060.72 38.412 1061.08 37.8753 1061.55 37.418C1062.02 36.9513 1062.56 36.592 1063.19 36.34C1063.82 36.0787 1064.51 35.948 1065.26 35.948C1066 35.948 1066.68 36.0787 1067.3 36.34C1067.94 36.592 1068.49 36.9513 1068.96 37.418C1069.43 37.8753 1069.8 38.4167 1070.06 39.042C1070.32 39.658 1070.45 40.33 1070.45 41.058C1070.45 41.7767 1070.32 42.4487 1070.06 43.074C1069.8 43.69 1069.44 44.2313 1068.97 44.698C1068.5 45.1553 1067.95 45.5147 1067.32 45.776C1066.69 46.0373 1066.02 46.168 1065.29 46.168ZM1065.26 44.166C1065.85 44.166 1066.36 44.0353 1066.8 43.774C1067.25 43.5127 1067.59 43.1487 1067.84 42.682C1068.08 42.206 1068.2 41.66 1068.2 41.044C1068.2 40.5773 1068.13 40.1573 1067.99 39.784C1067.85 39.4013 1067.65 39.0747 1067.39 38.804C1067.13 38.524 1066.81 38.314 1066.45 38.174C1066.1 38.0247 1065.7 37.95 1065.26 37.95C1064.67 37.95 1064.15 38.0807 1063.71 38.342C1063.27 38.594 1062.93 38.9533 1062.68 39.42C1062.44 39.8773 1062.32 40.4187 1062.32 41.044C1062.32 41.5107 1062.39 41.9353 1062.53 42.318C1062.67 42.7007 1062.87 43.032 1063.12 43.312C1063.38 43.5827 1063.69 43.7927 1064.06 43.942C1064.42 44.0913 1064.82 44.166 1065.26 44.166ZM1076.11 46.154C1075.29 46.154 1074.58 45.9813 1073.95 45.636C1073.33 45.2907 1072.85 44.8147 1072.49 44.208C1072.15 43.592 1071.98 42.892 1071.98 42.108V36.116H1074.19V42.234C1074.19 42.626 1074.27 42.9667 1074.44 43.256C1074.61 43.5453 1074.84 43.7693 1075.13 43.928C1075.42 44.0773 1075.75 44.152 1076.11 44.152C1076.48 44.152 1076.81 44.0773 1077.09 43.928C1077.37 43.7693 1077.59 43.55 1077.74 43.27C1077.91 42.9807 1078 42.64 1078 42.248V36.116H1080.21V42.122C1080.21 42.906 1080.04 43.6013 1079.69 44.208C1079.34 44.8147 1078.86 45.2907 1078.25 45.636C1077.63 45.9813 1076.92 46.154 1076.11 46.154ZM1084.61 46V36.256H1086.81V46H1084.61ZM1081.51 38.034V36.116H1089.9V38.034H1081.51Z" fill="#2C2825"/>
<path d="M1136.64 46.154C1135.9 46.154 1135.22 46.028 1134.58 45.776C1133.96 45.5147 1133.41 45.1507 1132.93 44.684C1132.47 44.2173 1132.1 43.676 1131.84 43.06C1131.58 42.4347 1131.45 41.7627 1131.45 41.044C1131.45 40.3253 1131.58 39.658 1131.84 39.042C1132.1 38.4167 1132.47 37.8753 1132.93 37.418C1133.4 36.9607 1133.94 36.606 1134.57 36.354C1135.2 36.0927 1135.89 35.962 1136.63 35.962C1137.41 35.962 1138.11 36.088 1138.71 36.34C1139.33 36.592 1139.87 36.9373 1140.32 37.376L1138.85 38.86C1138.59 38.58 1138.28 38.3607 1137.9 38.202C1137.54 38.0433 1137.11 37.964 1136.63 37.964C1136.2 37.964 1135.8 38.0387 1135.44 38.188C1135.08 38.328 1134.78 38.5333 1134.51 38.804C1134.26 39.0747 1134.06 39.4013 1133.91 39.784C1133.77 40.1667 1133.7 40.5867 1133.7 41.044C1133.7 41.5107 1133.77 41.9353 1133.91 42.318C1134.06 42.7007 1134.26 43.0273 1134.51 43.298C1134.78 43.5687 1135.08 43.7787 1135.44 43.928C1135.8 44.0773 1136.2 44.152 1136.63 44.152C1137.13 44.152 1137.57 44.0727 1137.94 43.914C1138.32 43.7553 1138.64 43.536 1138.91 43.256L1140.39 44.74C1139.92 45.1787 1139.37 45.524 1138.76 45.776C1138.15 46.028 1137.44 46.154 1136.64 46.154ZM1146.21 46.168C1145.46 46.168 1144.77 46.0373 1144.13 45.776C1143.51 45.5147 1142.96 45.1507 1142.48 44.684C1142.01 44.2173 1141.64 43.676 1141.38 43.06C1141.11 42.4347 1140.98 41.7627 1140.98 41.044C1140.98 40.316 1141.11 39.644 1141.38 39.028C1141.64 38.412 1142 37.8753 1142.47 37.418C1142.93 36.9513 1143.48 36.592 1144.11 36.34C1144.74 36.0787 1145.43 35.948 1146.18 35.948C1146.92 35.948 1147.6 36.0787 1148.22 36.34C1148.86 36.592 1149.41 36.9513 1149.87 37.418C1150.35 37.8753 1150.72 38.4167 1150.98 39.042C1151.24 39.658 1151.37 40.33 1151.37 41.058C1151.37 41.7767 1151.24 42.4487 1150.98 43.074C1150.72 43.69 1150.35 44.2313 1149.89 44.698C1149.42 45.1553 1148.87 45.5147 1148.24 45.776C1147.61 46.0373 1146.93 46.168 1146.21 46.168ZM1146.18 44.166C1146.77 44.166 1147.28 44.0353 1147.72 43.774C1148.17 43.5127 1148.51 43.1487 1148.75 42.682C1149 42.206 1149.12 41.66 1149.12 41.044C1149.12 40.5773 1149.05 40.1573 1148.91 39.784C1148.77 39.4013 1148.57 39.0747 1148.31 38.804C1148.04 38.524 1147.73 38.314 1147.37 38.174C1147.01 38.0247 1146.62 37.95 1146.18 37.95C1145.59 37.95 1145.07 38.0807 1144.62 38.342C1144.19 38.594 1143.84 38.9533 1143.6 39.42C1143.36 39.8773 1143.24 40.4187 1143.24 41.044C1143.24 41.5107 1143.31 41.9353 1143.45 42.318C1143.59 42.7007 1143.78 43.032 1144.04 43.312C1144.3 43.5827 1144.61 43.7927 1144.97 43.942C1145.34 44.0913 1145.74 44.166 1146.18 44.166ZM1153.05 46V36.116H1154.59L1155.25 38.09V46H1153.05ZM1159.87 46L1154.04 38.538L1154.59 36.116L1160.41 43.578L1159.87 46ZM1159.87 46L1159.28 44.026V36.116H1161.48V46H1159.87ZM1166.09 46V36.256H1168.28V46H1166.09ZM1162.99 38.034V36.116H1171.38V38.034H1162.99ZM1170.93 46L1174.85 36.116H1176.83L1180.71 46H1178.39L1175.42 37.796H1176.22L1173.21 46H1170.93ZM1173.15 44.208V42.416H1178.54V44.208H1173.15ZM1186.19 46.154C1185.46 46.154 1184.77 46.028 1184.14 45.776C1183.51 45.5147 1182.96 45.1507 1182.48 44.684C1182.02 44.2173 1181.65 43.676 1181.39 43.06C1181.13 42.4347 1181 41.7627 1181 41.044C1181 40.3253 1181.13 39.658 1181.39 39.042C1181.65 38.4167 1182.02 37.8753 1182.48 37.418C1182.95 36.9607 1183.5 36.606 1184.12 36.354C1184.76 36.0927 1185.44 35.962 1186.18 35.962C1186.96 35.962 1187.66 36.088 1188.27 36.34C1188.88 36.592 1189.42 36.9373 1189.88 37.376L1188.41 38.86C1188.15 38.58 1187.83 38.3607 1187.45 38.202C1187.09 38.0433 1186.67 37.964 1186.18 37.964C1185.75 37.964 1185.35 38.0387 1184.99 38.188C1184.64 38.328 1184.33 38.5333 1184.07 38.804C1183.81 39.0747 1183.61 39.4013 1183.46 39.784C1183.32 40.1667 1183.25 40.5867 1183.25 41.044C1183.25 41.5107 1183.32 41.9353 1183.46 42.318C1183.61 42.7007 1183.81 43.0273 1184.07 43.298C1184.33 43.5687 1184.64 43.7787 1184.99 43.928C1185.35 44.0773 1185.75 44.152 1186.18 44.152C1186.68 44.152 1187.12 44.0727 1187.5 43.914C1187.87 43.7553 1188.19 43.536 1188.46 43.256L1189.95 44.74C1189.47 45.1787 1188.92 45.524 1188.31 45.776C1187.7 46.028 1187 46.154 1186.19 46.154ZM1193.69 46V36.256H1195.89V46H1193.69ZM1190.6 38.034V36.116H1198.99V38.034H1190.6Z" fill="#2C2825"/>
<a href="mailto: hello@figma.com">
<rect fill="black" fill-opacity="0" y="1.18" width="68.2666" height="17.64"/>
</a>
</svg>
