<svg width="192" height="25" viewBox="0 0 192 25" fill="none" xmlns="http://www.w3.org/2000/svg">
<path d="M10.6641 1.15723C12.7539 1.15723 14.5947 1.59668 16.1865 2.47559C17.7881 3.34473 19.0381 4.57031 19.9365 6.15234C20.8447 7.72461 21.2988 9.56543 21.2988 11.6748C21.2988 13.8135 20.8643 15.708 19.9951 17.3584C19.126 18.999 17.8955 20.2881 16.3037 21.2256C14.7217 22.1533 12.8418 22.6172 10.6641 22.6172C8.45703 22.6172 6.55762 22.168 4.96582 21.2695C3.37402 20.3613 2.14844 19.0918 1.28906 17.4609C0.429688 15.8301 0 13.9258 0 11.748C0 9.6582 0.454102 7.81738 1.3623 6.22559C2.28027 4.63379 3.54004 3.39355 5.1416 2.50488C6.74316 1.60645 8.58398 1.15723 10.6641 1.15723ZM13.8867 16.2012C13.8867 14.6582 13.7354 13.1592 13.4326 11.7041C13.3545 11.333 13.2275 10.8398 13.0518 10.2246C12.876 9.60938 12.6514 8.95996 12.3779 8.27637C12.1143 7.59277 11.8066 6.94336 11.4551 6.32812C11.1133 5.71289 10.7324 5.21484 10.3125 4.83398C9.90234 4.44336 9.46289 4.24805 8.99414 4.24805C8.49609 4.24805 8.13965 4.45312 7.9248 4.86328C7.71973 5.27344 7.59277 5.74219 7.54395 6.26953C7.50488 6.78711 7.48535 7.22168 7.48535 7.57324C7.48535 8.78418 7.58301 9.99512 7.77832 11.2061C7.9834 12.4072 8.2959 13.5791 8.71582 14.7217C8.83301 15.0537 9.00879 15.4834 9.24316 16.0107C9.4873 16.5381 9.77539 17.0654 10.1074 17.5928C10.4395 18.1201 10.7959 18.5645 11.1768 18.9258C11.5674 19.2871 11.9678 19.4678 12.3779 19.4678C12.876 19.4678 13.2275 19.2676 13.4326 18.8672C13.6475 18.4668 13.7744 18.0078 13.8135 17.4902C13.8623 16.9727 13.8867 16.543 13.8867 16.2012ZM27.5033 22.4561C26.5756 22.4561 25.7992 22.2217 25.1742 21.7529C24.559 21.2744 24.1 20.6543 23.7973 19.8926C23.4945 19.1309 23.3432 18.3301 23.3432 17.4902V12.5098C23.3432 12.1484 23.3139 11.8945 23.2553 11.748C23.1967 11.5918 23.0307 11.3916 22.7572 11.1475C22.5424 10.9521 22.3373 10.7715 22.142 10.6055C21.9564 10.4297 21.8637 10.1758 21.8637 9.84375C21.8637 9.46289 21.9857 9.16504 22.2299 8.9502C22.4838 8.72559 22.7719 8.5498 23.0941 8.42285L26.3168 7.14844C26.6977 6.99219 27.0785 6.85547 27.4594 6.73828C27.85 6.62109 28.2553 6.5625 28.6752 6.5625C29.0756 6.5625 29.3832 6.7041 29.598 6.9873C29.8129 7.26074 29.9203 7.58301 29.9203 7.9541V15.9082C29.9203 16.1816 29.9496 16.4746 30.0082 16.7871C30.0766 17.0996 30.2035 17.3682 30.3891 17.5928C30.5746 17.8076 30.8432 17.915 31.1947 17.915C31.5561 17.915 31.8734 17.8369 32.1469 17.6807C32.4203 17.5146 32.6693 17.3145 32.8939 17.0801V12.5098C32.8939 12.1387 32.8598 11.8701 32.7914 11.7041C32.7328 11.5283 32.5521 11.3232 32.2494 11.0889C32.0248 10.9131 31.8295 10.7422 31.6635 10.5762C31.4975 10.4102 31.4145 10.166 31.4145 9.84375C31.4145 9.46289 31.5365 9.16504 31.7807 8.9502C32.0346 8.72559 32.3227 8.5498 32.6449 8.42285L35.8676 7.14844C36.2484 6.99219 36.6293 6.85547 37.0102 6.73828C37.4008 6.62109 37.8061 6.5625 38.226 6.5625C38.6264 6.5625 38.934 6.69922 39.1488 6.97266C39.3734 7.24609 39.4857 7.57324 39.4857 7.9541V17.6221C39.4857 17.8955 39.4955 18.1689 39.515 18.4424C39.5443 18.7061 39.6566 18.9502 39.852 19.1748C40.0961 19.4385 40.3109 19.6582 40.4965 19.834C40.682 20.0098 40.7748 20.2979 40.7748 20.6982C40.7748 21.1377 40.643 21.4697 40.3793 21.6943C40.1156 21.9189 39.7689 22.0312 39.3393 22.0312H35.9994C35.2572 22.0312 34.6029 21.7529 34.0365 21.1963C33.4799 20.6396 33.2016 19.9951 33.2016 19.2627C32.6645 19.7803 32.0785 20.2832 31.4438 20.7715C30.809 21.2598 30.1547 21.665 29.4809 21.9873C28.8168 22.2998 28.1576 22.4561 27.5033 22.4561ZM49.5428 13.3447V17.6221C49.5428 18.1885 49.6063 18.5693 49.7332 18.7646C49.8699 18.96 50.2215 19.1162 50.7879 19.2334C51.2859 19.3311 51.6814 19.4482 51.9744 19.585C52.2771 19.7119 52.4285 20.083 52.4285 20.6982C52.4285 21.1377 52.2967 21.4697 52.033 21.6943C51.7693 21.9189 51.4227 22.0312 50.993 22.0312H43.2586C42.8387 22.0312 42.492 21.9189 42.2186 21.6943C41.9451 21.4697 41.8084 21.1377 41.8084 20.6982C41.8084 20.3467 41.8719 20.083 41.9988 19.9072C42.1355 19.7314 42.2869 19.5752 42.4529 19.4385C42.6287 19.292 42.7801 19.1064 42.907 18.8818C43.0438 18.6475 43.1121 18.2959 43.1121 17.8271V12.5098C43.1121 12.0703 43.034 11.7432 42.8777 11.5283C42.7313 11.3037 42.5604 11.1279 42.365 11.001C42.1795 10.874 42.0086 10.7324 41.8523 10.5762C41.7059 10.4102 41.6326 10.166 41.6326 9.84375C41.6326 9.46289 41.7547 9.16504 41.9988 8.9502C42.2527 8.72559 42.5408 8.5498 42.8631 8.42285L46.5252 6.97266C46.7596 6.875 46.9988 6.78223 47.243 6.69434C47.4871 6.60645 47.741 6.5625 48.0047 6.5625C48.3465 6.5625 48.6004 6.69434 48.7664 6.95801C48.9324 7.21191 49.0447 7.50977 49.1033 7.85156C49.1717 8.18359 49.2205 8.47656 49.2498 8.73047C49.2791 8.90625 49.3084 9.08203 49.3377 9.25781C49.367 9.43359 49.3914 9.60938 49.4109 9.78516C49.7137 8.88672 50.1775 8.125 50.8025 7.5C51.4373 6.875 52.3113 6.5625 53.4246 6.5625C54.2156 6.5625 54.8357 6.75781 55.285 7.14844C55.7439 7.53906 56.0711 8.04199 56.2664 8.65723C56.4617 9.2627 56.5594 9.90723 56.5594 10.5908C56.5594 11.2256 56.4764 11.8408 56.3104 12.4365C56.1443 13.0225 55.8514 13.5059 55.4314 13.8867C55.0213 14.2676 54.4402 14.458 53.6883 14.458C52.868 14.458 52.2674 14.3311 51.8865 14.0771C51.5154 13.8232 51.2762 13.5107 51.1688 13.1396C51.0613 12.7686 51.0027 12.3975 50.993 12.0264C50.993 11.6553 50.9637 11.3428 50.9051 11.0889C50.8465 10.835 50.6707 10.708 50.3777 10.708C50.1141 10.708 49.9236 10.8936 49.8064 11.2646C49.6893 11.626 49.616 12.0166 49.5867 12.4365C49.5574 12.8564 49.5428 13.1592 49.5428 13.3447ZM83.9391 17.168C83.9391 18.1641 83.7193 18.9795 83.2799 19.6143C82.8404 20.249 82.2594 20.7422 81.5367 21.0938C80.8238 21.4453 80.0475 21.6895 79.2076 21.8262C78.3678 21.9629 77.5426 22.0312 76.732 22.0312H65.2477C64.7203 22.0312 64.2955 21.9043 63.9732 21.6504C63.6607 21.3965 63.5045 20.9912 63.5045 20.4346C63.5045 19.9463 63.6021 19.5801 63.7975 19.3359C64.0025 19.082 64.2369 18.877 64.5006 18.7207C64.7643 18.5645 64.9938 18.3838 65.1891 18.1787C65.3941 17.9639 65.4967 17.6514 65.4967 17.2412V6.54785C65.4967 6.11816 65.3941 5.80078 65.1891 5.5957C64.9938 5.39062 64.7643 5.21484 64.5006 5.06836C64.2369 4.91211 64.0025 4.71191 63.7975 4.46777C63.6021 4.22363 63.5045 3.85254 63.5045 3.35449C63.5045 2.79785 63.6607 2.39258 63.9732 2.13867C64.2955 1.88477 64.7203 1.75781 65.2477 1.75781H74.1979C75.1549 1.75781 76.1363 1.86035 77.1422 2.06543C78.1578 2.27051 79.0953 2.60742 79.9547 3.07617C80.8141 3.54492 81.5074 4.16992 82.0348 4.95117C82.5719 5.73242 82.8404 6.69922 82.8404 7.85156C82.8404 9.11133 82.4547 10.1025 81.6832 10.8252C80.9215 11.5381 80.0133 12.0508 78.9586 12.3633C79.8082 12.5488 80.609 12.8418 81.3609 13.2422C82.1227 13.6328 82.7428 14.1504 83.2213 14.7949C83.6998 15.4395 83.9391 16.2305 83.9391 17.168ZM72.7916 4.70215H72.7037V11.6895H73.2311C74.3346 11.6895 75.0914 11.3721 75.5016 10.7373C75.9215 10.1025 76.1314 9.28223 76.1314 8.27637C76.1314 7.18262 75.858 6.31348 75.3111 5.66895C74.7643 5.02441 73.9244 4.70215 72.7916 4.70215ZM76.8785 16.8604C76.8785 16.0791 76.649 15.4346 76.19 14.9268C75.7408 14.4092 75.1109 14.1504 74.3004 14.1504H72.7037V16.6553C72.7037 17.3975 72.8844 17.9932 73.2457 18.4424C73.607 18.8818 74.1734 19.1016 74.9449 19.1016C75.6578 19.1016 76.1559 18.8916 76.4391 18.4717C76.732 18.0518 76.8785 17.5146 76.8785 16.8604ZM90.9199 0C91.3203 0 91.6279 0.136719 91.8428 0.410156C92.0674 0.683594 92.1797 1.01074 92.1797 1.3916V17.6221C92.1797 17.9053 92.1943 18.1836 92.2236 18.457C92.2529 18.7207 92.375 18.96 92.5898 19.1748C92.8535 19.4385 93.0781 19.6533 93.2637 19.8193C93.459 19.9756 93.5566 20.2686 93.5566 20.6982C93.5566 21.1377 93.4199 21.4697 93.1465 21.6943C92.873 21.9189 92.5264 22.0312 92.1064 22.0312H85.6611C85.2412 22.0312 84.8945 21.9189 84.6211 21.6943C84.3477 21.4697 84.2109 21.1377 84.2109 20.6982C84.2109 20.3271 84.2793 20.0586 84.416 19.8926C84.5527 19.7168 84.7139 19.5654 84.8994 19.4385C85.085 19.3115 85.2461 19.1357 85.3828 18.9111C85.5195 18.6768 85.5879 18.3105 85.5879 17.8125V5.93262C85.5879 5.46387 85.5098 5.12207 85.3535 4.90723C85.1973 4.69238 85.0117 4.53125 84.7969 4.42383C84.5918 4.30664 84.4111 4.1748 84.2549 4.02832C84.0986 3.87207 84.0205 3.62305 84.0205 3.28125C84.0205 2.89062 84.1475 2.58789 84.4014 2.37305C84.6553 2.1582 84.9434 1.9873 85.2656 1.86035L88.5322 0.585938C88.9229 0.429687 89.3135 0.292969 89.7041 0.175781C90.0947 0.0585938 90.5 0 90.9199 0ZM102.471 6.5625C104.082 6.5625 105.494 6.89453 106.704 7.55859C107.925 8.22266 108.877 9.15527 109.561 10.3564C110.245 11.5576 110.586 12.9688 110.586 14.5898C110.586 16.1816 110.21 17.5684 109.458 18.75C108.706 19.9219 107.696 20.835 106.426 21.4893C105.166 22.1338 103.765 22.4561 102.222 22.4561C100.601 22.4561 99.1801 22.124 97.9594 21.46C96.7387 20.7861 95.7865 19.8438 95.1029 18.6328C94.4291 17.4121 94.0922 15.9912 94.0922 14.3701C94.0922 12.7881 94.473 11.4111 95.2348 10.2393C95.9965 9.06738 97.0121 8.16406 98.2816 7.5293C99.5512 6.88477 100.948 6.5625 102.471 6.5625ZM103.306 19.2188C103.55 19.2188 103.721 19.0918 103.819 18.8379C103.926 18.584 103.995 18.3057 104.024 18.0029C104.053 17.6904 104.068 17.4512 104.068 17.2852C104.068 16.7285 104.024 16.1768 103.936 15.6299C103.848 15.0732 103.736 14.5264 103.599 13.9893C103.55 13.7744 103.457 13.4424 103.321 12.9932C103.184 12.5342 103.018 12.0557 102.823 11.5576C102.627 11.0596 102.412 10.6348 102.178 10.2832C101.944 9.93164 101.695 9.75586 101.431 9.75586C101.206 9.75586 101.04 9.88281 100.933 10.1367C100.835 10.3906 100.772 10.6738 100.743 10.9863C100.713 11.2891 100.699 11.5186 100.699 11.6748C100.699 11.9385 100.738 12.3633 100.816 12.9492C100.894 13.5254 101.006 14.1699 101.153 14.8828C101.309 15.5957 101.495 16.2842 101.709 16.9482C101.924 17.6025 102.163 18.1445 102.427 18.5742C102.701 19.0039 102.994 19.2188 103.306 19.2188ZM119.647 6.5625C121.259 6.5625 122.67 6.89453 123.881 7.55859C125.101 8.22266 126.054 9.15527 126.737 10.3564C127.421 11.5576 127.762 12.9688 127.762 14.5898C127.762 16.1816 127.387 17.5684 126.635 18.75C125.883 19.9219 124.872 20.835 123.602 21.4893C122.343 22.1338 120.941 22.4561 119.398 22.4561C117.777 22.4561 116.356 22.124 115.136 21.46C113.915 20.7861 112.963 19.8438 112.279 18.6328C111.605 17.4121 111.268 15.9912 111.268 14.3701C111.268 12.7881 111.649 11.4111 112.411 10.2393C113.173 9.06738 114.188 8.16406 115.458 7.5293C116.727 6.88477 118.124 6.5625 119.647 6.5625ZM120.482 19.2188C120.726 19.2188 120.897 19.0918 120.995 18.8379C121.102 18.584 121.171 18.3057 121.2 18.0029C121.229 17.6904 121.244 17.4512 121.244 17.2852C121.244 16.7285 121.2 16.1768 121.112 15.6299C121.024 15.0732 120.912 14.5264 120.775 13.9893C120.726 13.7744 120.634 13.4424 120.497 12.9932C120.36 12.5342 120.194 12.0557 119.999 11.5576C119.804 11.0596 119.589 10.6348 119.354 10.2832C119.12 9.93164 118.871 9.75586 118.607 9.75586C118.383 9.75586 118.217 9.88281 118.109 10.1367C118.012 10.3906 117.948 10.6738 117.919 10.9863C117.889 11.2891 117.875 11.5186 117.875 11.6748C117.875 11.9385 117.914 12.3633 117.992 12.9492C118.07 13.5254 118.182 14.1699 118.329 14.8828C118.485 15.5957 118.671 16.2842 118.886 16.9482C119.1 17.6025 119.34 18.1445 119.603 18.5742C119.877 19.0039 120.17 19.2188 120.482 19.2188ZM135.007 6.5625C135.407 6.5625 135.71 6.7041 135.915 6.9873C136.13 7.26074 136.238 7.58301 136.238 7.9541V9.43359C136.999 8.71094 137.839 8.05176 138.757 7.45605C139.685 6.86035 140.588 6.5625 141.467 6.5625C142.512 6.5625 143.347 6.86523 143.972 7.4707C144.597 8.07617 145.031 8.81348 145.276 9.68262C145.793 9.1748 146.35 8.68164 146.946 8.20312C147.541 7.72461 148.161 7.33398 148.806 7.03125C149.45 6.71875 150.105 6.5625 150.769 6.5625C151.696 6.5625 152.458 6.80664 153.054 7.29492C153.659 7.77344 154.104 8.39355 154.387 9.15527C154.68 9.90723 154.826 10.6982 154.826 11.5283V17.6221C154.826 17.8467 154.841 18.1299 154.87 18.4717C154.9 18.8037 155.007 19.0479 155.193 19.2041V19.2188C155.407 19.4434 155.598 19.6631 155.764 19.8779C155.93 20.083 156.013 20.3564 156.013 20.6982C156.013 21.1279 155.881 21.46 155.617 21.6943C155.354 21.9189 155.012 22.0312 154.592 22.0312H148.571C148.171 22.0312 147.859 21.9092 147.634 21.665C147.409 21.4111 147.297 21.0889 147.297 20.6982C147.297 20.3369 147.38 20.0586 147.546 19.8633C147.722 19.668 147.893 19.4531 148.059 19.2188C148.225 18.9746 148.308 18.623 148.308 18.1641V13.1104C148.308 12.8369 148.279 12.5488 148.22 12.2461C148.161 11.9336 148.044 11.665 147.868 11.4404C147.693 11.2158 147.429 11.1035 147.077 11.1035C146.755 11.1035 146.467 11.1914 146.213 11.3672C145.969 11.543 145.739 11.7383 145.525 11.9531V18.0322C145.525 18.5498 145.608 18.9355 145.774 19.1895C145.94 19.4434 146.106 19.668 146.272 19.8633C146.438 20.0586 146.521 20.3369 146.521 20.6982C146.521 21.0986 146.408 21.4209 146.184 21.665C145.969 21.9092 145.656 22.0312 145.246 22.0312H139.27C138.86 22.0312 138.547 21.9092 138.332 21.665C138.117 21.4111 138.01 21.0889 138.01 20.6982C138.01 20.3369 138.093 20.0586 138.259 19.8633C138.425 19.6582 138.591 19.4385 138.757 19.2041C138.923 18.9697 139.006 18.623 139.006 18.1641V13.1104C139.006 12.8369 138.977 12.5488 138.918 12.2461C138.86 11.9336 138.742 11.665 138.567 11.4404C138.391 11.2158 138.127 11.1035 137.776 11.1035C137.463 11.1035 137.18 11.1914 136.926 11.3672C136.672 11.5332 136.443 11.7285 136.238 11.9531V18.0322C136.238 18.5596 136.321 18.9502 136.487 19.2041C136.653 19.458 136.819 19.6826 136.985 19.8779C137.151 20.0635 137.234 20.3369 137.234 20.6982C137.234 21.0889 137.126 21.4111 136.911 21.665C136.696 21.9092 136.384 22.0312 135.974 22.0312H129.953C129.533 22.0312 129.192 21.9189 128.928 21.6943C128.664 21.46 128.532 21.1279 128.532 20.6982C128.532 20.2686 128.63 19.9512 128.825 19.7461C129.03 19.541 129.231 19.3213 129.426 19.0869C129.621 18.8428 129.719 18.4619 129.719 17.9443V12.5098C129.719 12.0703 129.651 11.7432 129.514 11.5283C129.377 11.3037 129.221 11.1279 129.045 11.001C128.869 10.874 128.713 10.7324 128.576 10.5762C128.44 10.4102 128.371 10.166 128.371 9.84375C128.371 9.44336 128.488 9.14062 128.723 8.93555C128.967 8.73047 129.255 8.55957 129.587 8.42285L132.678 7.14844C133.049 6.99219 133.425 6.85547 133.806 6.73828C134.196 6.62109 134.597 6.5625 135.007 6.5625ZM163.17 9.06738C162.837 9.06738 162.54 9.14062 162.276 9.28711C162.012 9.43359 161.88 9.69727 161.88 10.0781C161.88 10.3906 161.954 10.6299 162.1 10.7959C162.247 10.9619 162.457 11.1035 162.73 11.2207C163.023 11.3477 163.331 11.4404 163.653 11.499C163.975 11.5576 164.288 11.6211 164.59 11.6895C165.489 11.8848 166.329 12.2168 167.11 12.6855C167.891 13.1445 168.521 13.7402 169 14.4727C169.488 15.1953 169.732 16.0547 169.732 17.0508C169.732 18.3887 169.429 19.4531 168.824 20.2441C168.218 21.0352 167.413 21.6016 166.407 21.9434C165.411 22.2852 164.317 22.4561 163.126 22.4561C162.823 22.4561 162.403 22.417 161.866 22.3389C161.338 22.2607 160.948 22.1533 160.694 22.0166H160.679C160.582 21.9678 160.421 21.9141 160.196 21.8555C159.971 21.7969 159.805 21.7676 159.698 21.7676C159.395 21.7676 159.136 21.8848 158.921 22.1191C158.707 22.3633 158.443 22.4854 158.13 22.4854C157.711 22.4854 157.379 22.3486 157.134 22.0752C156.9 21.8018 156.719 21.4795 156.592 21.1084C156.475 20.7275 156.368 20.376 156.27 20.0537C156.202 19.7803 156.124 19.5117 156.036 19.248C155.948 18.9746 155.904 18.6963 155.904 18.4131C155.904 17.9053 156.041 17.4951 156.314 17.1826C156.587 16.8701 156.983 16.7139 157.501 16.7139C158.008 16.7139 158.428 16.8262 158.76 17.0508C159.092 17.2656 159.385 17.5342 159.639 17.8564C159.903 18.1787 160.167 18.5059 160.43 18.8379C160.704 19.1602 161.031 19.4336 161.412 19.6582C161.793 19.873 162.271 19.9805 162.847 19.9805C163.248 19.9805 163.55 19.8633 163.755 19.6289C163.961 19.3848 164.063 19.0723 164.063 18.6914C164.063 18.1445 163.917 17.793 163.624 17.6367C163.331 17.4805 162.955 17.3584 162.496 17.2705C161.656 17.1045 160.855 16.9092 160.093 16.6846C159.341 16.46 158.672 16.1523 158.087 15.7617C157.51 15.3711 157.051 14.8535 156.71 14.209C156.378 13.5645 156.212 12.7344 156.212 11.7188C156.212 10.5176 156.539 9.54102 157.193 8.78906C157.847 8.02734 158.677 7.46582 159.683 7.10449C160.699 6.74316 161.729 6.5625 162.774 6.5625C163.174 6.5625 163.565 6.57715 163.946 6.60645C164.337 6.63574 164.722 6.71387 165.103 6.84082C165.152 6.85059 165.264 6.88965 165.44 6.95801C165.626 7.02637 165.806 7.09473 165.982 7.16309C166.158 7.22168 166.246 7.25098 166.246 7.25098C166.568 7.25098 166.841 7.13867 167.066 6.91406C167.3 6.67969 167.579 6.5625 167.901 6.5625C168.311 6.5625 168.614 6.72363 168.809 7.0459C169.004 7.3584 169.141 7.72461 169.219 8.14453C169.307 8.56445 169.376 8.9209 169.424 9.21387C169.463 9.43848 169.503 9.66797 169.542 9.90234C169.581 10.127 169.6 10.3516 169.6 10.5762C169.6 10.9668 169.507 11.3379 169.322 11.6895C169.146 12.0312 168.829 12.2021 168.37 12.2021C167.911 12.2021 167.505 12.0459 167.154 11.7334C166.802 11.4111 166.451 11.0449 166.099 10.6348C165.748 10.2246 165.342 9.86328 164.883 9.55078C164.424 9.22852 163.853 9.06738 163.17 9.06738ZM180.771 24.4189C179.14 24.4189 177.665 24.1162 176.347 23.5107C175.028 22.915 173.896 22.0898 172.948 21.0352C172.011 19.9707 171.288 18.7451 170.78 17.3584C170.282 15.9717 170.033 14.4922 170.033 12.9199C170.033 11.3379 170.282 9.86328 170.78 8.49609C171.288 7.12891 172.016 5.93262 172.963 4.90723C173.91 3.87207 175.043 3.06641 176.361 2.49023C177.68 1.9043 179.149 1.61133 180.771 1.61133C182.401 1.61133 183.876 1.89941 185.194 2.47559C186.513 3.05176 187.641 3.85742 188.578 4.89258C189.525 5.92773 190.248 7.12891 190.746 8.49609C191.254 9.86328 191.508 11.3379 191.508 12.9199C191.508 14.502 191.259 15.9863 190.761 17.373C190.263 18.7598 189.545 19.9854 188.607 21.0498C187.67 22.1045 186.537 22.9297 185.209 23.5254C183.891 24.1211 182.411 24.4189 180.771 24.4189ZM180.771 21.8555C182.45 21.8555 183.905 21.4453 185.136 20.625C186.376 19.8047 187.333 18.7158 188.007 17.3584C188.681 16.001 189.018 14.5215 189.018 12.9199C189.018 11.3086 188.676 9.84375 187.992 8.52539C187.318 7.19727 186.361 6.14258 185.121 5.36133C183.891 4.57031 182.44 4.1748 180.771 4.1748C179.091 4.1748 177.636 4.56543 176.405 5.34668C175.175 6.12793 174.228 7.17773 173.563 8.49609C172.899 9.81445 172.567 11.2891 172.567 12.9199C172.567 14.541 172.895 16.0303 173.549 17.3877C174.213 18.7354 175.155 19.8193 176.376 20.6396C177.606 21.4502 179.071 21.8555 180.771 21.8555ZM186.396 11.25C186.396 11.8262 186.234 12.2852 185.912 12.627C185.59 12.959 185.199 13.2178 184.74 13.4033L185.956 15.542C186.093 15.7861 186.303 15.9863 186.586 16.1426C186.869 16.2891 187.011 16.5283 187.011 16.8604C187.011 17.1338 186.933 17.3584 186.776 17.5342C186.63 17.7002 186.415 17.7832 186.132 17.7832H182.777C182.23 17.7832 181.957 17.5195 181.957 16.9922C181.957 16.7773 182.025 16.5869 182.162 16.4209C182.318 16.3721 182.396 16.2842 182.396 16.1572C182.396 16.0596 182.309 15.8154 182.133 15.4248C181.957 15.0342 181.786 14.6777 181.62 14.3555C181.552 14.3652 181.479 14.3701 181.4 14.3701C181.137 14.3701 180.878 14.3506 180.624 14.3115C180.37 14.2627 180.116 14.1992 179.862 14.1211V15.4248C179.862 15.7178 179.931 15.918 180.067 16.0254C180.204 16.123 180.341 16.2256 180.478 16.333C180.624 16.4404 180.697 16.6602 180.697 16.9922C180.697 17.5195 180.409 17.7832 179.833 17.7832H176.068C175.482 17.7832 175.189 17.5195 175.189 16.9922C175.189 16.6797 175.282 16.46 175.468 16.333C175.653 16.1963 175.834 16.0742 176.01 15.9668C176.195 15.8594 176.288 15.6787 176.288 15.4248V10.0195C176.288 9.74609 176.195 9.56055 176.01 9.46289C175.834 9.36523 175.653 9.25781 175.468 9.14062C175.282 9.02344 175.189 8.79395 175.189 8.45215C175.189 7.9248 175.482 7.66113 176.068 7.66113H180.873C181.439 7.66113 182.04 7.71484 182.675 7.82227C183.319 7.92969 183.92 8.12012 184.477 8.39355C185.043 8.65723 185.502 9.02344 185.854 9.49219C186.215 9.95117 186.396 10.5371 186.396 11.25ZM179.862 9.49219V12.5098C180.028 12.5488 180.194 12.5732 180.36 12.583C180.536 12.5928 180.717 12.5977 180.902 12.5977C181.371 12.5977 181.791 12.5098 182.162 12.334C182.543 12.1484 182.733 11.7773 182.733 11.2207C182.733 10.6445 182.548 10.2148 182.177 9.93164C181.815 9.63867 181.361 9.49219 180.814 9.49219H179.862Z" fill="#2C2825"/>
</svg>
